<svg width="32" height="32" viewBox="0 0 32 32" fill="none" xmlns="http://www.w3.org/2000/svg">
<path d="M25 4.5H28C28.265 4.50079 28.5189 4.6064 28.7062 4.79377C28.8936 4.98113 28.9992 5.23503 29 5.5V30.5C28.9992 30.765 28.8936 31.0189 28.7062 31.2062C28.5189 31.3936 28.265 31.4992 28 31.5H25C25.265 31.4992 25.5189 31.3936 25.7062 31.2062C25.8936 31.0189 25.9992 30.765 26 30.5V5.5C25.9992 5.23503 25.8936 4.98113 25.7062 4.79377C25.5189 4.6064 25.265 4.50079 25 4.5V4.5Z" fill="#D9D4C2"/>
<path d="M20 27.5001C20.1313 27.5008 20.2614 27.475 20.3825 27.4243C20.5037 27.3736 20.6133 27.2991 20.705 27.2051L20.75 27.2501L18.5 29.5001H16L18 27.5001H20Z" fill="#4B3C39"/>
<path d="M26 5.5V30.5C25.9992 30.765 25.8936 31.0189 25.7062 31.2062C25.5189 31.3936 25.265 31.4992 25 31.5H9C8.73503 31.4992 8.48113 31.3936 8.29377 31.2062C8.1064 31.0189 8.00079 30.765 8 30.5V27.5H10V29.5H24V6.5H21V4.5H25C25.265 4.50079 25.5189 4.6064 25.7062 4.79377C25.8936 4.98113 25.9992 5.23503 26 5.5V5.5Z" fill="#F0EBD7"/>
<path d="M15.5 27.5L13.5 29.5H11L13 27.5H15.5Z" fill="#4B3C39"/>
<path d="M24 26.5V29.5H21L24 26.5Z" fill="#4B3C39"/>
<path d="M21.0001 26.5V24.5L24.0001 21.5V24L20.7501 27.25L20.7051 27.205C20.7991 27.1133 20.8736 27.0037 20.9243 26.8825C20.975 26.7614 21.0008 26.6313 21.0001 26.5V26.5Z" fill="#4B3C39"/>
<path d="M24 16.5V19L21 22V19.5L24 16.5Z" fill="#4B3C39"/>
<path d="M24 11.5V14L21 17V14.5L24 11.5Z" fill="#4B3C39"/>
<path d="M24 6.5V9L21 12V9.5L24 6.5Z" fill="#4B3C39"/>
<path d="M13 27.5L11 29.5H10V27.5H13Z" fill="#A80132"/>
<path d="M18 27.5L16 29.5H13.5L15.5 27.5H18Z" fill="#A80132"/>
<path d="M24 24V26.5L21 29.5H18.5L20.75 27.25L24 24Z" fill="#A80132"/>
<path d="M24 19V21.5L21 24.5V22L24 19Z" fill="#A80132"/>
<path d="M24 14V16.5L21 19.5V17L24 14Z" fill="#A80132"/>
<path d="M24 9V11.5L21 14.5V12L24 9Z" fill="#A80132"/>
<path d="M24 6.5L21 9.5V6.5H24Z" fill="#A80132"/>
<path d="M20 0.5H4C3.73503 0.500791 3.48113 0.606402 3.29377 0.793767C3.1064 0.981133 3.00079 1.23503 3 1.5V26.5C3.00079 26.765 3.1064 27.0189 3.29377 27.2062C3.48113 27.3936 3.73503 27.4992 4 27.5H20C20.265 27.4992 20.5189 27.3936 20.7062 27.2062C20.8936 27.0189 20.9992 26.765 21 26.5V1.5C20.9992 1.23503 20.8936 0.981133 20.7062 0.793767C20.5189 0.606402 20.265 0.500791 20 0.5Z" fill="#F7F3E1"/>
<path d="M4.5 2V25C4.5 25.2652 4.60536 25.5196 4.79289 25.7071C4.98043 25.8946 5.23478 26 5.5 26H18.5C18.7652 26 19.0196 25.8946 19.2071 25.7071C19.3946 25.5196 19.5 25.2652 19.5 25V24C19.5 24 4.5 20 4.5 2Z" fill="#E3DECB"/>
<path d="M19 29.0001L20.75 27.2501L20.705 27.2051C20.6133 27.2991 20.5037 27.3736 20.3825 27.4243C20.2614 27.475 20.1313 27.5008 20 27.5001H18L16.5 29.0001H19Z" fill="#2E2523"/>
<path d="M11.0135 29.5H10V27.5H8V30.5C8.00079 30.765 8.1064 31.0189 8.29377 31.2062C8.48113 31.3936 8.73503 31.4992 9 31.5H10C10.0008 31.1106 10.0929 30.7268 10.2689 30.3795C10.4449 30.0321 10.6999 29.7309 11.0135 29.5V29.5Z" fill="#C7C3B2"/>
<path d="M22.5 4.5H21V6.5H22.5V4.5Z" fill="#C7C3B2"/>
<path d="M11.0135 29.5C11.4419 29.1769 11.9635 29.0014 12.5 29H14L15.5 27.5H13L11 29.5H11.0135ZM22.5 25.5V23L21 24.5V26.5C21.0007 26.6313 20.9749 26.7614 20.9243 26.8825C20.8736 27.0037 20.799 27.1133 20.705 27.205L20.75 27.25L22.5 25.5Z" fill="#2E2523"/>
<path d="M22.5 18L21 19.5V22L22.5 20.5V18Z" fill="#2E2523"/>
<path d="M22.5 13L21 14.5V17L22.5 15.5V13Z" fill="#2E2523"/>
<path d="M22.5 8L21 9.5V12L22.5 10.5V8Z" fill="#2E2523"/>
<path d="M11 29.5L13 27.5H10V29.5H11Z" fill="#69001F"/>
<path d="M16.5 29L18 27.5H15.5L14 29H16.5Z" fill="#69001F"/>
<path d="M22.5 27V25.5L20.75 27.25L19 29H20.5C21.0304 29 21.5391 28.7893 21.9142 28.4142C22.2893 28.0391 22.5 27.5304 22.5 27Z" fill="#69001F"/>
<path d="M22.5 20.5L21 22V24.5L22.5 23V20.5Z" fill="#69001F"/>
<path d="M22.5 15.5L21 17V19.5L22.5 18V15.5Z" fill="#69001F"/>
<path d="M22.5 10.5L21 12V14.5L22.5 13V10.5Z" fill="#69001F"/>
<path d="M22.5 6.5H21V9.5L22.5 8V6.5Z" fill="#69001F"/>
<path d="M27 27V5.5C27 5.23478 26.8946 4.98043 26.7071 4.79289C26.5196 4.60536 26.2652 4.5 26 4.5H25C25.265 4.50079 25.5189 4.6064 25.7062 4.79377C25.8936 4.98113 25.9992 5.23503 26 5.5V30.5C25.9992 30.765 25.8936 31.0189 25.7062 31.2062C25.5189 31.3936 25.265 31.4992 25 31.5H28C28.265 31.4992 28.5189 31.3936 28.7062 31.2062C28.8936 31.0189 28.9992 30.765 29 30.5V29C28.4696 29 27.9609 28.7893 27.5858 28.4142C27.2107 28.0391 27 27.5304 27 27Z" fill="#C7C3B2"/>
<path d="M13.4999 10.9999L11.9999 9.49991L10.4999 10.9999C9.22487 12.2749 7.99987 12.9999 7.99987 14.4999C8.01909 15.0242 8.23597 15.5218 8.60696 15.8928C8.97795 16.2638 9.47556 16.4807 9.99987 16.4999C10.3007 16.4805 10.5928 16.3914 10.8532 16.2395C11.1135 16.0876 11.3349 15.8772 11.4999 15.6249V16.9999L10.9999 18.4999H12.9999L12.4999 16.9999V15.6249C12.6648 15.8772 12.8862 16.0876 13.1466 16.2395C13.4069 16.3914 13.6991 16.4805 13.9999 16.4999C14.5242 16.4807 15.0218 16.2638 15.3928 15.8928C15.7638 15.5218 15.9806 15.0242 15.9999 14.4999C15.9999 12.9999 14.7749 12.2749 13.4999 10.9999ZM5.77637 1.88791L4.27637 4.88791L4.72337 5.11191L5.15437 4.24991H6.84537L7.27637 5.11191L7.72337 4.88791L6.22337 1.88791C6.20024 1.84928 6.16749 1.8173 6.12832 1.7951C6.08915 1.7729 6.04489 1.76123 5.99987 1.76123C5.95484 1.76123 5.91059 1.7729 5.87141 1.7951C5.83224 1.8173 5.7995 1.84928 5.77637 1.88791ZM5.40437 3.74991L5.99987 2.55891L6.59537 3.74991H5.40437ZM19.2764 22.8879L18.8454 23.7499H17.1544L16.7234 22.8879L16.2764 23.1119L17.7764 26.1119C17.7972 26.1534 17.8291 26.1883 17.8685 26.2126C17.908 26.237 17.9535 26.2499 17.9999 26.2499C18.0463 26.2499 18.0917 26.237 18.1312 26.2126C18.1707 26.1883 18.2026 26.1534 18.2234 26.1119L19.7234 23.1119L19.2764 22.8879ZM17.9999 25.4409L17.4044 24.2499H18.5954L17.9999 25.4409ZM5.99487 5.99991C5.99487 6.00491 4.99987 6.55991 4.99987 7.49991C4.99205 7.56724 4.99966 7.63547 5.0221 7.69943C5.04454 7.76338 5.08123 7.8214 5.1294 7.86909C5.17757 7.91678 5.23596 7.95289 5.30014 7.97468C5.36432 7.99648 5.43262 8.0034 5.49987 7.99491C5.59167 7.99597 5.68065 7.96322 5.74987 7.90291L5.74487 8.99991H6.24487L6.24837 7.89991C6.31675 7.96256 6.40564 7.99812 6.49837 7.99991C6.56596 8.00795 6.6345 8.00055 6.69883 7.97827C6.76315 7.95598 6.82158 7.91939 6.86971 7.87126C6.91785 7.82312 6.95444 7.76469 6.97672 7.70037C6.99901 7.63605 7.00641 7.56751 6.99837 7.49991C6.99987 6.55991 5.99987 5.99991 5.99487 5.99991ZM18.4999 20.0049C18.4081 20.0039 18.3191 20.0366 18.2499 20.0969L18.2549 18.9999H17.7549L17.7499 20.0999C17.6815 20.0373 17.5926 20.0017 17.4999 19.9999C17.4323 19.9919 17.3637 19.9993 17.2994 20.0216C17.2351 20.0438 17.1767 20.0804 17.1285 20.1286C17.0804 20.1767 17.0438 20.2351 17.0215 20.2995C16.9992 20.3638 16.9918 20.4323 16.9999 20.4999C16.9999 21.4399 17.9999 21.9999 18.0049 21.9999C18.0099 21.9999 18.9999 21.4399 18.9999 20.4999C19.0077 20.4326 19.0001 20.3644 18.9776 20.3004C18.9552 20.2364 18.9185 20.1784 18.8703 20.1307C18.8222 20.083 18.7638 20.0469 18.6996 20.0251C18.6354 20.0033 18.5671 19.9964 18.4999 20.0049Z" fill="#2E2523"/>
</svg>
