<svg width="32" height="32" viewBox="0 0 32 32" fill="none" xmlns="http://www.w3.org/2000/svg">
<path d="M12 4C16.4183 4 20 3.55228 20 3C20 2.44772 16.4183 2 12 2C7.58172 2 4 2.44772 4 3C4 3.55228 7.58172 4 12 4Z" fill="#F7F3E1"/>
<path d="M4 3C4 3.55 7.58 4 12 4C16.42 4 20 3.55 20 3C20 2.45 16.42 2 12 2C7.58 2 4 2.45 4 3ZM12 0.5C18.35 0.5 23.5 1.62 23.5 3C23.5 4.035 20.615 4.92 16.5 5.305C15.12 5.43 13.595 5.5 12 5.5C10.405 5.5 8.88 5.43 7.5 5.305C3.385 4.92 0.5 4.035 0.5 3C0.5 1.62 5.65 0.5 12 0.5Z" fill="#D1013E"/>
<path d="M16.5 26.305C20.615 25.92 23.5 25.035 23.5 24V27C23.5 28.115 20.14 29.06 15.5 29.385V26.385C15.84 26.36 16.175 26.33 16.5 26.305ZM7.5 26.305C7.825 26.33 8.16 26.36 8.5 26.385V29.385C3.86 29.06 0.5 28.115 0.5 27V24C0.5 25.035 3.385 25.92 7.5 26.305Z" fill="#8F0029"/>
<path d="M15.5 23.3852C15.84 23.3602 16.175 23.3302 16.5 23.3052V26.3052C16.175 26.3302 15.84 26.3602 15.5 26.3852C14.395 26.4602 13.22 26.5002 12 26.5002C10.78 26.5002 9.605 26.4602 8.5 26.3852C8.16 26.3602 7.825 26.3302 7.5 26.3052V23.3052C7.825 23.3302 8.16 23.3602 8.5 23.3852C9.605 23.4602 10.78 23.5002 12 23.5002C13.22 23.5002 14.395 23.4602 15.5 23.3852Z" fill="#8F0029"/>
<path d="M8.5 20.385V23.385C8.16 23.36 7.825 23.33 7.5 23.305C3.385 22.92 0.5 22.035 0.5 21V18C0.5 19.035 3.385 19.92 7.5 20.305C7.825 20.33 8.16 20.36 8.5 20.385ZM16.5 23.305C16.175 23.33 15.84 23.36 15.5 23.385V20.385C15.84 20.36 16.175 20.33 16.5 20.305C20.615 19.92 23.5 19.035 23.5 18V21C23.5 22.035 20.615 22.92 16.5 23.305Z" fill="#8F0029"/>
<path d="M15.5 17.3852C15.84 17.3602 16.175 17.3302 16.5 17.3052V20.3052C16.175 20.3302 15.84 20.3602 15.5 20.3852C14.395 20.4602 13.22 20.5002 12 20.5002C10.78 20.5002 9.605 20.4602 8.5 20.3852C8.16 20.3602 7.825 20.3302 7.5 20.3052V17.3052C7.825 17.3302 8.16 17.3602 8.5 17.3852C9.605 17.4602 10.78 17.5002 12 17.5002C13.22 17.5002 14.395 17.4602 15.5 17.3852Z" fill="#8F0029"/>
<path d="M16.5 17.305C16.175 17.33 15.84 17.36 15.5 17.385V14.385C15.84 14.36 16.175 14.33 16.5 14.305C20.615 13.92 23.5 13.035 23.5 12V15C23.5 16.035 20.615 16.92 16.5 17.305ZM8.5 14.385V17.385C8.16 17.36 7.825 17.33 7.5 17.305C3.385 16.92 0.5 16.035 0.5 15V12C0.5 13.035 3.385 13.92 7.5 14.305C7.825 14.33 8.16 14.36 8.5 14.385Z" fill="#A80132"/>
<path d="M15.5 11.3852C15.84 11.3602 16.175 11.3302 16.5 11.3052V14.3052C16.175 14.3302 15.84 14.3602 15.5 14.3852C14.395 14.4602 13.22 14.5002 12 14.5002C10.78 14.5002 9.605 14.4602 8.5 14.3852C8.16 14.3602 7.825 14.3302 7.5 14.3052V11.3052C7.825 11.3302 8.16 11.3602 8.5 11.3852C9.605 11.4602 10.78 11.5002 12 11.5002C13.22 11.5002 14.395 11.4602 15.5 11.3852Z" fill="#A80132"/>
<path d="M8.5 8.385V11.385C8.16 11.36 7.825 11.33 7.5 11.305C3.385 10.92 0.5 10.035 0.5 9V6C0.5 7.035 3.385 7.92 7.5 8.305C7.825 8.33 8.16 8.36 8.5 8.385ZM16.5 11.305C16.175 11.33 15.84 11.36 15.5 11.385V8.385C15.84 8.36 16.175 8.33 16.5 8.305C20.615 7.92 23.5 7.035 23.5 6V9C23.5 10.035 20.615 10.92 16.5 11.305Z" fill="#A80132"/>
<path d="M15.5 8.38518C14.395 8.46018 13.22 8.50018 12 8.50018C10.78 8.50018 9.605 8.46018 8.5 8.38518C8.16 8.36018 7.825 8.33018 7.5 8.30518V5.30518C8.88 5.43018 10.405 5.50018 12 5.50018C13.595 5.50018 15.12 5.43018 16.5 5.30518V8.30518C16.175 8.33018 15.84 8.36018 15.5 8.38518Z" fill="#A80132"/>
<path d="M15.5 26.3848V29.3848C14.395 29.4598 13.22 29.4998 12 29.4998C10.78 29.4998 9.605 29.4598 8.5 29.3848V26.3848C9.605 26.4598 10.78 26.4998 12 26.4998C13.22 26.4998 14.395 26.4598 15.5 26.3848Z" fill="#E3DECB"/>
<path d="M23.5 21V24C23.5 25.035 20.615 25.92 16.5 26.305V23.305C20.615 22.92 23.5 22.035 23.5 21ZM7.5 23.305V26.305C3.385 25.92 0.5 25.035 0.5 24V21C0.5 22.035 3.385 22.92 7.5 23.305ZM15.5 20.385V23.385C14.395 23.46 13.22 23.5 12 23.5C10.78 23.5 9.605 23.46 8.5 23.385V20.385C9.605 20.46 10.78 20.5 12 20.5C13.22 20.5 14.395 20.46 15.5 20.385ZM23.5 15V18C23.5 19.035 20.615 19.92 16.5 20.305V17.305C20.615 16.92 23.5 16.035 23.5 15ZM7.5 17.305V20.305C3.385 19.92 0.5 19.035 0.5 18V15C0.5 16.035 3.385 16.92 7.5 17.305ZM15.5 14.385V17.385C14.395 17.46 13.22 17.5 12 17.5C10.78 17.5 9.605 17.46 8.5 17.385V14.385C9.605 14.46 10.78 14.5 12 14.5C13.22 14.5 14.395 14.46 15.5 14.385ZM23.5 9V12C23.5 13.035 20.615 13.92 16.5 14.305V11.305C20.615 10.92 23.5 10.035 23.5 9ZM7.5 11.305V14.305C3.385 13.92 0.5 13.035 0.5 12V9C0.5 10.035 3.385 10.92 7.5 11.305ZM15.5 8.385V11.385C14.395 11.46 13.22 11.5 12 11.5C10.78 11.5 9.605 11.46 8.5 11.385V8.385C9.605 8.46 10.78 8.5 12 8.5C13.22 8.5 14.395 8.46 15.5 8.385ZM16.5 5.305C20.615 4.92 23.5 4.035 23.5 3V6C23.5 7.035 20.615 7.92 16.5 8.305V5.305ZM7.5 5.305V8.305C3.385 7.92 0.5 7.035 0.5 6V3C0.5 4.035 3.385 4.92 7.5 5.305Z" fill="#F7F3E1"/>
<path d="M20 3C20 3.085 19.915 3.17 19.75 3.25C18.86 2.82 15.73 2.5 12 2.5C8.27 2.5 5.14 2.82 4.25 3.25C4.085 3.17 4 3.085 4 3C4 2.45 7.58 2 12 2C16.42 2 20 2.45 20 3Z" fill="#C7C3B2"/>
<path d="M15.5 10.3848V11.3848C14.395 11.4598 13.22 11.4998 12 11.4998C10.78 11.4998 9.605 11.4598 8.5 11.3848V10.3848C9.605 10.4598 10.78 10.4998 12 10.4998C13.22 10.4998 14.395 10.4598 15.5 10.3848Z" fill="#E3DECB"/>
<path d="M23.5 8V9C23.5 10.035 20.615 10.92 16.5 11.305C16.175 11.33 15.84 11.36 15.5 11.385V10.385C15.84 10.36 16.175 10.33 16.5 10.305C20.615 9.92 23.5 9.035 23.5 8Z" fill="#7D0126"/>
<path d="M15.5 16.3848V17.3848C14.395 17.4598 13.22 17.4998 12 17.4998C10.78 17.4998 9.605 17.4598 8.5 17.3848V16.3848C9.605 16.4598 10.78 16.4998 12 16.4998C13.22 16.4998 14.395 16.4598 15.5 16.3848Z" fill="#E3DECB"/>
<path d="M23.5 14V15C23.5 16.035 20.615 16.92 16.5 17.305C16.175 17.33 15.84 17.36 15.5 17.385V16.385C15.84 16.36 16.175 16.33 16.5 16.305C20.615 15.92 23.5 15.035 23.5 14Z" fill="#7D0126"/>
<path d="M15.5 22.3848V23.3848C14.395 23.4598 13.22 23.4998 12 23.4998C10.78 23.4998 9.605 23.4598 8.5 23.3848V22.3848C9.605 22.4598 10.78 22.4998 12 22.4998C13.22 22.4998 14.395 22.4598 15.5 22.3848Z" fill="#E3DECB"/>
<path d="M23.5 20.0002V21.0002C23.5 22.0352 20.615 22.9202 16.5 23.3052C16.175 23.3302 15.84 23.3602 15.5 23.3852V22.3852C15.84 22.3602 16.175 22.3302 16.5 22.3052C20.615 21.9202 23.5 21.0352 23.5 20.0002ZM16.5 7.30518V8.30518C16.175 8.33018 15.84 8.36018 15.5 8.38518C14.395 8.46018 13.22 8.50018 12 8.50018C10.78 8.50018 9.605 8.46018 8.5 8.38518C8.16 8.36018 7.825 8.33018 7.5 8.30518V7.30518C8.88 7.43018 10.405 7.50018 12 7.50018C13.595 7.50018 15.12 7.43018 16.5 7.30518Z" fill="#7D0126"/>
<path d="M23.5 5V6C23.5 7.035 20.615 7.92 16.5 8.305V7.305C20.615 6.92 23.5 6.035 23.5 5Z" fill="#E3DECB"/>
<path d="M16.5 13.3052V14.3052C16.175 14.3302 15.84 14.3602 15.5 14.3852C14.395 14.4602 13.22 14.5002 12 14.5002C10.78 14.5002 9.605 14.4602 8.5 14.3852C8.16 14.3602 7.825 14.3302 7.5 14.3052V13.3052C8.88 13.4302 10.405 13.5002 12 13.5002C13.595 13.5002 15.12 13.4302 16.5 13.3052Z" fill="#7D0126"/>
<path d="M23.5 11V12C23.5 13.035 20.615 13.92 16.5 14.305V13.305C20.615 12.92 23.5 12.035 23.5 11Z" fill="#E3DECB"/>
<path d="M16.5 19.3052V20.3052C16.175 20.3302 15.84 20.3602 15.5 20.3852C14.395 20.4602 13.22 20.5002 12 20.5002C10.78 20.5002 9.605 20.4602 8.5 20.3852C8.16 20.3602 7.825 20.3302 7.5 20.3052V19.3052C8.88 19.4302 10.405 19.5002 12 19.5002C13.595 19.5002 15.12 19.4302 16.5 19.3052Z" fill="#7D0126"/>
<path d="M23.5 17V18C23.5 19.035 20.615 19.92 16.5 20.305V19.305C20.615 18.92 23.5 18.035 23.5 17ZM23.5 23V24C23.5 25.035 20.615 25.92 16.5 26.305V25.305C20.615 24.92 23.5 24.035 23.5 23Z" fill="#E3DECB"/>
<path d="M23.5 24V27C23.5 28.115 20.14 29.06 15.5 29.385V26.385C15.84 26.36 16.175 26.33 16.5 26.305C17.365 26.225 18.17 26.12 18.91 26H21.5C22.0304 26 22.5391 25.7893 22.9142 25.4142C23.2893 25.0391 23.5 24.5304 23.5 24ZM7.5 26.305C7.825 26.33 8.16 26.36 8.5 26.385V29.385C3.86 29.06 0.5 28.115 0.5 27V24C0.5 25.035 3.385 25.92 7.5 26.305Z" fill="#7D0126"/>
<path d="M14.019 25.4597C12.4556 25.033 10.9728 24.3524 9.63 23.4452H9.625C9.24167 23.4302 8.86667 23.4102 8.5 23.3852C8.16 23.3602 7.825 23.3302 7.5 23.3052V26.3052C7.825 26.3302 8.16 26.3602 8.5 26.3852C9.605 26.4602 10.78 26.5002 12 26.5002C13.22 26.5002 14.395 26.4602 15.5 26.3852C15.84 26.3602 16.175 26.3302 16.5 26.3052V25.3052C15.7165 25.3762 14.8825 25.4272 14.019 25.4597Z" fill="#7D0126"/>
<path d="M8.2145 22.362C7.4413 21.6978 6.73768 20.9566 6.1145 20.15C2.755 19.71 0.5 18.915 0.5 18V21C0.5 22.035 3.385 22.92 7.5 23.305C7.825 23.33 8.16 23.36 8.5 23.385V22.385C8.403 22.378 8.3105 22.37 8.2145 22.362ZM7.5 16.305C6.24766 16.1957 5.00329 16.009 3.774 15.746C3.53968 15.0506 3.35947 14.3382 3.235 13.615C1.53 13.185 0.5 12.62 0.5 12V15C0.5 16.035 3.385 16.92 7.5 17.305C7.825 17.33 8.16 17.36 8.5 17.385V16.385C8.16 16.36 7.825 16.33 7.5 16.305ZM7.5 10.305C5.98172 10.1808 4.47648 9.92995 3 9.555V7.555C1.435 7.13 0.5 6.59 0.5 6V9C0.5 10.035 3.385 10.92 7.5 11.305C7.825 11.33 8.16 11.36 8.5 11.385V10.385C8.16 10.36 7.825 10.33 7.5 10.305Z" fill="#7D0126"/>
<path d="M15.5 26.3848V29.3848C14.395 29.4598 13.22 29.4998 12 29.4998C10.78 29.4998 9.605 29.4598 8.5 29.3848V26.3848C9.605 26.4598 10.78 26.4998 12 26.4998C13.22 26.4998 14.395 26.4598 15.5 26.3848Z" fill="#D9D4C2"/>
<path d="M7.5 23.305V26.305C3.385 25.92 0.5 25.035 0.5 24V21C0.5 22.035 3.385 22.92 7.5 23.305ZM7.5 19.305C6.736 19.2335 6.0145 19.1445 5.346 19.041C4.89741 18.3389 4.50742 17.6011 4.18 16.835V16.83C1.915 16.375 0.5 15.725 0.5 15V18C0.5 18.914 2.753 19.711 6.114 20.15C6.55767 20.2073 7.01933 20.259 7.499 20.305L7.5 19.305ZM3.0885 12.579C3.03049 12.0547 3.00095 11.5275 3 11V10.555C1.435 10.13 0.5 9.59 0.5 9V12C0.5 13.035 3.385 13.92 7.5 14.305V13.305C6.01231 13.1825 4.53698 12.9397 3.0885 12.579V12.579ZM3 6.5565V4.5565C1.435 4.13 0.5 3.59 0.5 3V6C0.5 7.035 3.385 7.92 7.5 8.305V7.305C5.98177 7.18132 4.47652 6.93094 3 6.5565Z" fill="#E3DECB"/>
<path d="M31.25 17.6149C31.5834 19.1874 31.5834 20.8124 31.25 22.3849L30.57 22.0899C30.22 21.8649 29.73 22.0799 29.48 22.5649L27.65 26.0949C27.5204 26.2954 27.4668 26.5357 27.4989 26.7723C27.531 27.0089 27.6467 27.2262 27.825 27.3849L28.375 27.8749C26.9182 29.4289 25.0568 30.5458 23 31.0999V30.2999C22.9701 30.0627 22.8489 29.8465 22.6622 29.6972C22.4755 29.5479 22.238 29.4771 22 29.4999H18C17.7621 29.4771 17.5245 29.5479 17.3379 29.6972C17.1512 29.8465 17.03 30.0627 17 30.2999V31.0999C14.9451 30.5476 13.0852 29.4324 11.63 27.8799L12.185 27.3849C12.3619 27.2252 12.4765 27.0081 12.5086 26.7719C12.5406 26.5358 12.488 26.2959 12.36 26.0949L10.53 22.5649C10.275 22.0799 9.79003 21.8649 9.44003 22.0899L8.75003 22.3849C8.58271 21.601 8.49891 20.8015 8.50003 19.9999C8.49809 19.1963 8.5836 18.395 8.75503 17.6099L9.44003 17.9049C9.79003 18.1299 10.275 17.9199 10.53 17.4299L12.36 13.9049C12.4883 13.704 12.5411 13.464 12.509 13.2278C12.477 12.9916 12.3622 12.7744 12.185 12.6149L11.635 12.1199C13.0875 10.5665 14.9461 9.45107 17 8.8999V9.6999C17.03 9.93708 17.1512 10.1533 17.3379 10.3026C17.5245 10.452 17.7621 10.5227 18 10.4999H22C22.238 10.5227 22.4755 10.452 22.6622 10.3026C22.8489 10.1533 22.9701 9.93708 23 9.6999V8.8999C25.0559 9.45283 26.916 10.5699 28.37 12.1249L27.825 12.6149C27.6467 12.7736 27.531 12.9909 27.4989 13.2275C27.4668 13.4641 27.5204 13.7044 27.65 13.9049L29.48 17.4299C29.73 17.9199 30.22 18.1299 30.57 17.9049L31.25 17.6149ZM27.5 19.9999C27.5 18.5165 27.0602 17.0665 26.2361 15.8331C25.4119 14.5998 24.2406 13.6385 22.8702 13.0708C21.4997 12.5031 19.9917 12.3546 18.5369 12.644C17.082 12.9334 15.7456 13.6477 14.6967 14.6966C13.6478 15.7455 12.9335 17.0819 12.6441 18.5367C12.3548 19.9916 12.5033 21.4996 13.0709 22.87C13.6386 24.2405 14.5999 25.4118 15.8333 26.2359C17.0666 27.06 18.5167 27.4999 20 27.4999C21.989 27.4992 23.8962 26.7089 25.3026 25.3025C26.709 23.8961 27.4994 21.9888 27.5 19.9999V19.9999Z" fill="#D1013E"/>
<path d="M20 12.5C21.4834 12.5 22.9334 12.9399 24.1668 13.764C25.4001 14.5881 26.3614 15.7594 26.9291 17.1299C27.4968 18.5003 27.6453 20.0083 27.3559 21.4632C27.0665 22.918 26.3522 24.2544 25.3033 25.3033C24.2544 26.3522 22.918 27.0665 21.4632 27.3559C20.0083 27.6453 18.5003 27.4968 17.1299 26.9291C15.7594 26.3614 14.5881 25.4001 13.764 24.1668C12.9399 22.9334 12.5 21.4834 12.5 20C12.5007 18.0111 13.2911 16.1038 14.6974 14.6974C16.1038 13.2911 18.0111 12.5007 20 12.5V12.5ZM24 20C21.715 19.355 20 15.5 20 15.5C20 15.5 18.285 19.355 16 20C18.285 20.645 20 24.5 20 24.5C20 24.5 21.715 20.645 24 20Z" fill="#FFFCED"/>
<path d="M20 15.5C20 15.5 21.715 19.355 24 20C21.715 20.645 20 24.5 20 24.5C20 24.5 18.285 20.645 16 20C18.285 19.355 20 15.5 20 15.5Z" fill="#D1013E"/>
<path d="M23 30.3V31.1C21.0356 31.6333 18.9644 31.6333 17 31.1V30.3C17.03 30.0628 17.1512 29.8466 17.3378 29.6973C17.5245 29.5479 17.762 29.4772 18 29.5H22C22.238 29.4772 22.4755 29.5479 22.6622 29.6973C22.8488 29.8466 22.97 30.0628 23 30.3V30.3ZM9.44 22.09C9.79 21.865 10.275 22.08 10.53 22.565L12.36 26.095C12.4879 26.296 12.5406 26.5359 12.5085 26.772C12.4765 27.0082 12.3619 27.2253 12.185 27.385L11.63 27.88C10.1834 26.3477 9.18696 24.4465 8.75 22.385L9.44 22.09ZM10.53 17.43C10.275 17.92 9.79 18.13 9.44 17.905L8.755 17.61C9.18783 15.5485 10.1849 13.6478 11.635 12.12L12.185 12.615C12.3621 12.7745 12.4769 12.9917 12.509 13.2279C12.541 13.4641 12.4882 13.7041 12.36 13.905L10.53 17.43ZM23 8.9V9.7C22.97 9.93718 22.8488 10.1534 22.6622 10.3027C22.4755 10.4521 22.238 10.5228 22 10.5H18C17.762 10.5228 17.5245 10.4521 17.3378 10.3027C17.1512 10.1534 17.03 9.93718 17 9.7V8.9C18.9644 8.36667 21.0356 8.36667 23 8.9V8.9ZM30.57 17.905C30.22 18.13 29.73 17.92 29.48 17.43L27.65 13.905C27.5204 13.7045 27.4667 13.4642 27.4988 13.2276C27.5309 12.991 27.6466 12.7737 27.825 12.615L28.37 12.125C29.8183 13.6541 30.8151 15.5543 31.25 17.615L30.57 17.905ZM29.48 22.565C29.73 22.08 30.22 21.865 30.57 22.09L31.25 22.385C30.8148 24.4446 29.82 26.3442 28.375 27.875L27.825 27.385C27.6466 27.2263 27.5309 27.009 27.4988 26.7724C27.4667 26.5358 27.5204 26.2955 27.65 26.095L29.48 22.565Z" fill="#F7F3E1"/>
<path d="M20 12C18.4178 12 16.871 12.4692 15.5554 13.3482C14.2398 14.2273 13.2145 15.4767 12.609 16.9385C12.0035 18.4003 11.845 20.0089 12.1537 21.5607C12.4624 23.1126 13.2243 24.538 14.3431 25.6569C15.462 26.7757 16.8874 27.5376 18.4393 27.8463C19.9911 28.155 21.5997 27.9965 23.0615 27.391C24.5233 26.7855 25.7727 25.7602 26.6518 24.4446C27.5308 23.129 28 21.5823 28 20C28 17.8783 27.1571 15.8434 25.6569 14.3431C24.1566 12.8429 22.1217 12 20 12ZM20 27.5C18.5166 27.5 17.0666 27.0601 15.8332 26.236C14.5999 25.4119 13.6386 24.2406 13.0709 22.8701C12.5032 21.4997 12.3547 19.9917 12.6441 18.5368C12.9335 17.082 13.6478 15.7456 14.6967 14.6967C15.7456 13.6478 17.082 12.9335 18.5368 12.6441C19.9917 12.3547 21.4997 12.5032 22.8701 13.0709C24.2406 13.6386 25.4119 14.5999 26.236 15.8332C27.0601 17.0666 27.5 18.5166 27.5 20C27.4993 21.9889 26.709 23.8962 25.3026 25.3026C23.8962 26.7089 21.9889 27.4993 20 27.5V27.5Z" fill="#A80132"/>
<path d="M20 12.5C18.5166 12.5 17.0666 12.9399 15.8332 13.764C14.5999 14.5881 13.6386 15.7594 13.0709 17.1299C12.5032 18.5003 12.3547 20.0083 12.6441 21.4632C12.9335 22.918 13.6478 24.2544 14.6967 25.3033C15.7456 26.3522 17.082 27.0665 18.5368 27.3559C19.9917 27.6453 21.4997 27.4968 22.8701 26.9291C24.2406 26.3614 25.4119 25.4001 26.236 24.1668C27.0601 22.9334 27.5 21.4834 27.5 20C27.4993 18.0111 26.7089 16.1038 25.3026 14.6974C23.8962 13.2911 21.9889 12.5007 20 12.5V12.5ZM20 27C18.6155 27 17.2622 26.5895 16.111 25.8203C14.9599 25.0511 14.0627 23.9579 13.5328 22.6788C13.003 21.3997 12.8644 19.9922 13.1345 18.6344C13.4046 17.2765 14.0713 16.0292 15.0503 15.0503C16.0292 14.0713 17.2765 13.4046 18.6344 13.1345C19.9922 12.8644 21.3997 13.003 22.6788 13.5328C23.9579 14.0627 25.0511 14.9599 25.8203 16.111C26.5895 17.2622 27 18.6155 27 20C27 21.8565 26.2625 23.637 24.9497 24.9497C23.637 26.2625 21.8565 27 20 27ZM23 30.3V31.1C21.0356 31.6333 18.9644 31.6333 17 31.1V30.3C17.03 30.0628 17.1512 29.8466 17.3378 29.6973C17.5245 29.5479 17.762 29.4772 18 29.5H22C22.238 29.4772 22.4755 29.5479 22.6622 29.6973C22.8488 29.8466 22.97 30.0628 23 30.3V30.3ZM12.185 27.385L11.63 27.88C10.1834 26.3477 9.18696 24.4465 8.75 22.385L9.44 22.09C9.79 21.865 10.275 22.08 10.53 22.565L12.36 26.095C12.4879 26.296 12.5406 26.5359 12.5085 26.772C12.4765 27.0082 12.3619 27.2253 12.185 27.385V27.385ZM31.25 22.385C30.8148 24.4446 29.82 26.3442 28.375 27.875L27.825 27.385C27.6466 27.2263 27.5309 27.009 27.4988 26.7724C27.4667 26.5358 27.5204 26.2955 27.65 26.095L29.48 22.565C29.73 22.08 30.22 21.865 30.57 22.09L31.25 22.385Z" fill="#E3DECB"/>
<path d="M9.00003 19.9999C8.99981 19.2643 9.07301 18.5305 9.21853 17.8094L8.75503 17.6094C8.58356 18.3946 8.49806 19.1962 8.50003 19.9999C8.49891 20.8015 8.58271 21.601 8.75003 22.3849L9.21803 22.1849C9.07295 21.4656 8.99992 20.7337 9.00003 19.9999V19.9999ZM17 9.4174V8.8999C14.9461 9.45107 13.0875 10.5665 11.635 12.1199L12.003 12.4514C13.3644 11.0076 15.0911 9.95921 17 9.4174V9.4174ZM12.0025 27.5499L11.63 27.8819C13.0855 29.4337 14.9453 30.5482 17 31.0999V30.5824C15.0911 30.0411 13.3642 28.9932 12.0025 27.5499V27.5499ZM28 12.4559L28.3685 12.1249C26.9149 10.5702 25.0553 9.45309 23 8.8999V9.4174C24.9106 9.95997 26.6385 11.01 28 12.4559ZM31.25 17.6149L30.782 17.8149C31.0724 19.2564 31.0724 20.7414 30.782 22.1829L31.2495 22.3854C31.5829 20.8129 31.5829 19.1879 31.2495 17.6154L31.25 17.6149ZM23 30.5824V31.0999C25.0568 30.5458 26.9182 29.4289 28.375 27.8749L28.0025 27.5429C26.6404 28.9895 24.9116 30.0399 23 30.5824V30.5824Z" fill="#8F0029"/>
<path d="M20 31.0001C18.9855 30.9999 17.976 30.8594 17 30.5826V31.1001C18.9644 31.6334 21.0356 31.6334 23 31.1001V30.5826C22.024 30.8594 21.0145 30.9999 20 31.0001V31.0001ZM9.218 22.1851L8.75 22.3851C9.18696 24.4465 10.1834 26.3478 11.63 27.8801L12.0025 27.5481C10.5904 26.0565 9.62556 24.1982 9.218 22.1851Z" fill="#C7C3B2"/>
<path d="M12.0029 12.45L11.6349 12.1185C10.1848 13.6463 9.18771 15.547 8.75488 17.6085L9.21838 17.8085C9.62686 15.797 10.5916 13.9404 12.0029 12.45V12.45ZM19.9999 9C21.0144 9.00016 22.0239 9.14066 22.9999 9.4175V8.9C21.0354 8.36667 18.9643 8.36667 16.9999 8.9V9.4175C17.9758 9.14066 18.9854 9.00016 19.9999 9V9ZM30.7819 17.8145L31.2499 17.6145C30.815 15.5538 29.8182 13.6536 28.3699 12.1245L27.9999 12.456C29.4103 13.9467 30.3742 15.8032 30.7819 17.8145Z" fill="#E3DECB"/>
<path d="M28.0029 27.5431L28.3754 27.8751C29.8204 26.3443 30.8152 24.4447 31.2504 22.3851L30.7829 22.1826C30.3761 24.1944 29.4129 26.0516 28.0029 27.5431Z" fill="#C7C3B2"/>
<path d="M29.5 20.5C29.7761 20.5 30 20.2761 30 20C30 19.7239 29.7761 19.5 29.5 19.5C29.2239 19.5 29 19.7239 29 20C29 20.2761 29.2239 20.5 29.5 20.5Z" fill="#FFFCED"/>
<path d="M10.5 20.5C10.7761 20.5 11 20.2761 11 20C11 19.7239 10.7761 19.5 10.5 19.5C10.2239 19.5 10 19.7239 10 20C10 20.2761 10.2239 20.5 10.5 20.5Z" fill="#FFFCED"/>
<path d="M15 28.5C15.2761 28.5 15.5 28.2761 15.5 28C15.5 27.7239 15.2761 27.5 15 27.5C14.7239 27.5 14.5 27.7239 14.5 28C14.5 28.2761 14.7239 28.5 15 28.5Z" fill="#FFFCED"/>
<path d="M25 28.5C25.2761 28.5 25.5 28.2761 25.5 28C25.5 27.7239 25.2761 27.5 25 27.5C24.7239 27.5 24.5 27.7239 24.5 28C24.5 28.2761 24.7239 28.5 25 28.5Z" fill="#FFFCED"/>
<path d="M15 12.5C15.2761 12.5 15.5 12.2761 15.5 12C15.5 11.7239 15.2761 11.5 15 11.5C14.7239 11.5 14.5 11.7239 14.5 12C14.5 12.2761 14.7239 12.5 15 12.5Z" fill="#FFFCED"/>
<path d="M25 12.5C25.2761 12.5 25.5 12.2761 25.5 12C25.5 11.7239 25.2761 11.5 25 11.5C24.7239 11.5 24.5 11.7239 24.5 12C24.5 12.2761 24.7239 12.5 25 12.5Z" fill="#FFFCED"/>
</svg>
