<svg width="32" height="32" viewBox="0 0 32 32" fill="none" xmlns="http://www.w3.org/2000/svg">
<path d="M24.02 1.45506L24 1.50006L23 3.50006H20.5L21.44 0.685063C22.3307 0.824711 23.1985 1.08371 24.02 1.45506V1.45506ZM19 0.500063L17.5 3.50006H15L16.4 0.700063C17.26 0.564525 18.1294 0.497647 19 0.500063V0.500063Z" fill="#D1013E"/>
<path d="M10.5 3.5H15L16.41 6.32C14.2129 5.95813 12.1635 4.98026 10.5 3.5V3.5ZM23 3.5H26.5C25.7199 4.21339 24.8366 4.80505 23.88 5.255L23 3.5ZM20.5 3.5L21.995 5.99C21.0199 6.28154 20.012 6.44952 18.995 6.49L17.5 3.5H20.5Z" fill="#8A0129"/>
<path d="M17.5 3.50013L18.995 6.49013C18.83 6.49513 18.665 6.50013 18.5 6.50013C17.7994 6.50122 17.1001 6.44099 16.41 6.32013L15 3.50013H17.5ZM23 3.50013L23.88 5.25513C23.2732 5.55208 22.6427 5.79794 21.995 5.99013L20.5 3.50013H23ZM24.02 1.45513C25.915 2.33013 26.5 3.50013 26.5 3.50013H23L24 1.50013L24.02 1.45513ZM21.44 0.68513L20.5 3.50013H17.5L19 0.50013C19.817 0.496767 20.6329 0.55863 21.44 0.68513V0.68513ZM16.4 0.70013L15 3.50013H10.5C10.5 3.50013 12.27 1.38013 16.4 0.70013Z" fill="#A80132"/>
<path d="M31.5004 21.0002C31.5004 25.5002 28.5004 29.5002 23.0004 29.5002C20.2354 29.5002 18.0954 28.4902 16.6604 26.9052C17.2229 25.6807 17.5097 24.3476 17.5004 23.0002C17.5004 20.4702 16.5554 18.7352 15.1904 17.6952C15.6755 16.7091 16.4341 15.8836 17.3757 15.317C18.3173 14.7505 19.402 14.4669 20.5004 14.5002C21.3542 14.5399 22.1971 14.7085 23.0004 15.0002C23.8038 14.7085 24.6467 14.5399 25.5004 14.5002C28.5004 14.5002 31.5004 16.5002 31.5004 21.0002Z" fill="#A80132"/>
<path d="M15.19 17.695C16.555 18.735 17.5 20.47 17.5 23C17.5092 24.3474 17.2225 25.6805 16.66 26.905C15.42 29.58 12.81 31.5 9 31.5C3.5 31.5 0.5 27.5 0.5 23C0.5 18.5 3.5 16.5 6.5 16.5C7.35377 16.5397 8.19663 16.7083 9 17C9.80337 16.7083 10.6462 16.5397 11.5 16.5C12.8277 16.4836 14.124 16.9034 15.19 17.695V17.695Z" fill="#D1013E"/>
<path d="M9.57434 16.8295C9.83184 15.858 10.4543 12.672 10.4978 4.4295C15.3118 7.6475 22.1363 12.837 22.4833 14.8475C22.6698 14.904 22.8423 14.9585 23.0003 15.001C23.1503 14.9605 23.3113 14.91 23.4858 14.8565C23.1828 11.8185 13.4503 5.181 10.6463 3.3265L11.9463 0.7235C11.9844 0.647365 12.0024 0.562779 11.9986 0.477752C11.9948 0.392726 11.9694 0.310073 11.9247 0.237622C11.88 0.16517 11.8176 0.105319 11.7434 0.0637364C11.6691 0.0221535 11.5855 0.000215532 11.5003 0H10.0003C9.86773 0 9.74056 0.0526784 9.64679 0.146447C9.55302 0.240215 9.50034 0.367392 9.50034 0.5V3.5C9.50034 14.16 8.54434 16.793 8.53584 16.8145C8.52734 16.836 8.53184 16.845 8.52734 16.8595C8.69684 16.9095 8.85484 16.9595 9.00034 17C9.17384 16.953 9.36634 16.892 9.57434 16.8295Z" fill="#4B3C39"/>
<path d="M20.0004 21.4998C19.0724 18.2498 17.6434 16.7438 16.4124 16.0498C15.906 16.5171 15.4915 17.075 15.1904 17.6948C16.5554 18.7348 17.5004 20.4698 17.5004 22.9998C17.5097 24.3473 17.2229 25.6803 16.6604 26.9048C18.0954 28.4898 20.2354 29.4998 23.0004 29.4998C28.5004 29.4998 31.5004 25.4998 31.5004 20.9998C31.5004 20.8998 31.4909 20.8063 31.4879 20.7083C31.2274 25.5808 21.9724 28.3998 20.0004 21.4998Z" fill="#8A0129"/>
<path d="M11.5 28.5C8.0395 28.6465 4 27 4 22.5C4 18.9845 5.9065 17.312 7.2845 16.5595C7.02484 16.5203 6.76261 16.5004 6.5 16.5C3.5 16.5 0.5 18.5 0.5 23C0.5 27.5 3.5 31.5 9 31.5C12.81 31.5 15.42 29.58 16.66 26.905C17.2225 25.6805 17.5092 24.3475 17.5 23C17.5 22.95 17.4935 22.9 17.493 22.85C17.4205 25.997 15.935 28.3125 11.5 28.5Z" fill="#A80132"/>
<path d="M22 28.5C22 28.2348 22.1054 27.9804 22.2929 27.7929C22.4804 27.6054 22.7348 27.5 23 27.5C23.2652 27.5 23.5196 27.6054 23.7071 27.7929C23.8946 27.9804 24 28.2348 24 28.5H22Z" fill="#69001F"/>
<path d="M8 30.5C8 30.2348 8.10536 29.9804 8.29289 29.7929C8.48043 29.6054 8.73478 29.5 9 29.5C9.26522 29.5 9.51957 29.6054 9.70711 29.7929C9.89464 29.9804 10 30.2348 10 30.5H8Z" fill="#7D0126"/>
<path d="M8.2499 30.4999H7.7499C7.74358 30.3341 7.77159 30.1687 7.83217 30.0142C7.89275 29.8597 7.9846 29.7193 8.10196 29.602C8.21932 29.4846 8.35965 29.3928 8.51417 29.3322C8.66868 29.2716 8.83405 29.2436 8.9999 29.2499C9.16575 29.2436 9.33111 29.2716 9.48563 29.3322C9.64014 29.3928 9.78048 29.4846 9.89783 29.602C10.0152 29.7193 10.107 29.8597 10.1676 30.0142C10.2282 30.1687 10.2562 30.3341 10.2499 30.4999H9.7499C9.7499 30.301 9.67088 30.1102 9.53023 29.9696C9.38957 29.8289 9.19881 29.7499 8.9999 29.7499C8.80098 29.7499 8.61022 29.8289 8.46957 29.9696C8.32892 30.1102 8.2499 30.301 8.2499 30.4999Z" fill="#8A0129"/>
<path d="M22.25 28.5H21.75C21.75 28.1685 21.8817 27.8505 22.1161 27.6161C22.3505 27.3817 22.6685 27.25 23 27.25C23.3315 27.25 23.6495 27.3817 23.8839 27.6161C24.1183 27.8505 24.25 28.1685 24.25 28.5H23.75C23.75 28.3011 23.671 28.1103 23.5303 27.9697C23.3897 27.829 23.1989 27.75 23 27.75C22.8011 27.75 22.6103 27.829 22.4697 27.9697C22.329 28.1103 22.25 28.3011 22.25 28.5Z" fill="#7D0126"/>
<path d="M24.374 15.913C24.2673 15.982 24.178 16.0747 24.1131 16.1839C24.0483 16.2931 24.0095 16.4158 24 16.5425C24.0306 16.7158 24.0959 16.8811 24.1921 17.0285C24.2882 17.1758 24.4132 17.3022 24.5595 17.4L25.439 18.1865C26.1055 18.783 26.773 19.38 27.4855 19.9365C27.787 20.208 28.1532 20.3974 28.549 20.4865C28.79 20.525 29.0369 20.4946 29.2614 20.3988C29.4858 20.303 29.6786 20.1457 29.8175 19.945C29.9183 19.7653 29.9772 19.5652 29.99 19.3595C30.0298 18.945 29.9558 18.5276 29.776 18.152C29.4806 17.6252 29.0775 17.1666 28.593 16.806C28.2865 16.5428 27.9584 16.3059 27.612 16.098C27.1906 15.8544 26.7358 15.674 26.262 15.5625C25.9402 15.4867 25.6062 15.4787 25.2811 15.539C24.9561 15.5994 24.6471 15.7267 24.374 15.913V15.913ZM29.126 21C28.8812 20.9972 28.6393 21.0531 28.4205 21.163C28.1075 21.3319 27.8364 21.5691 27.6275 21.857C27.437 22.1055 27.2817 22.379 27.166 22.67C27.0577 22.9008 27.001 23.1525 27 23.4075C26.9996 23.5009 27.0196 23.5932 27.0587 23.678C27.0977 23.7628 27.1548 23.8381 27.226 23.8985C27.4227 24.0057 27.6524 24.0356 27.87 23.9825C28.0259 23.9692 28.1801 23.9407 28.3305 23.8975C28.6239 23.8081 28.8961 23.6599 29.1305 23.462C29.3538 23.2916 29.5511 23.0894 29.716 22.862C29.8591 22.6413 29.9546 22.3932 29.9965 22.1335C30.0013 21.9038 29.9613 21.6754 29.879 21.461C29.8206 21.3561 29.7411 21.2645 29.6455 21.1919C29.5499 21.1194 29.4402 21.0675 29.3235 21.0395C29.2599 21.017 29.1934 21.0037 29.126 21V21Z" fill="#D1013E"/>
<path d="M10.374 17.913C10.2673 17.982 10.178 18.0747 10.1131 18.1839C10.0483 18.2931 10.0095 18.4158 10 18.5425C10.0306 18.7158 10.0959 18.8811 10.1921 19.0285C10.2882 19.1758 10.4132 19.3022 10.5595 19.4L11.439 20.1865C12.1055 20.783 12.773 21.38 13.4855 21.9365C13.787 22.208 14.1532 22.3974 14.549 22.4865C14.79 22.525 15.0369 22.4946 15.2614 22.3988C15.4858 22.303 15.6786 22.1457 15.8175 21.945C15.9183 21.7653 15.9772 21.5652 15.99 21.3595C16.0298 20.945 15.9558 20.5276 15.776 20.152C15.4806 19.6252 15.0775 19.1666 14.593 18.806C14.2865 18.5428 13.9584 18.3059 13.612 18.098C13.1906 17.8544 12.7358 17.674 12.262 17.5625C11.9402 17.4867 11.6062 17.4787 11.2811 17.539C10.9561 17.5994 10.6471 17.7267 10.374 17.913ZM15.126 23C14.8812 22.9972 14.6393 23.0531 14.4205 23.163C14.1075 23.3319 13.8364 23.5691 13.6275 23.857C13.437 24.1055 13.2817 24.379 13.166 24.67C13.0577 24.9008 13.001 25.1525 13 25.4075C12.9996 25.5009 13.0196 25.5932 13.0587 25.678C13.0977 25.7628 13.1548 25.8381 13.226 25.8985C13.4227 26.0057 13.6524 26.0356 13.87 25.9825C14.0259 25.9692 14.1801 25.9407 14.3305 25.8975C14.6239 25.8081 14.8961 25.6599 15.1305 25.462C15.3538 25.2916 15.5511 25.0894 15.716 24.862C15.8591 24.6413 15.9546 24.3932 15.9965 24.1335C16.0013 23.9038 15.9613 23.6754 15.879 23.461C15.8206 23.3561 15.7411 23.2645 15.6455 23.1919C15.5499 23.1194 15.4402 23.0675 15.3235 23.0395C15.2599 23.017 15.1934 23.0037 15.126 23V23Z" fill="#FF014C"/>
<path d="M11.5 0.5L10 3.5V0.5H11.5Z" fill="#3B2F2D"/>
</svg>
