<svg width="32" height="32" viewBox="0 0 32 32" fill="none" xmlns="http://www.w3.org/2000/svg">
<path d="M7.5 27.5L5.835 28.335L5 30L4.165 28.335L2.5 27.5L4.165 26.665L5 25L5.835 26.665L7.5 27.5Z" fill="#FF9C00"/>
<path d="M29.5 4.5L27.835 5.335L27 7L26.165 5.335L24.5 4.5L26.165 3.665L27 2L27.835 3.665L29.5 4.5Z" fill="#FF9C00"/>
<path d="M20 28C24.4183 28 28 24.4183 28 20C28 15.5817 24.4183 12 20 12C15.5817 12 12 15.5817 12 20C12 24.4183 15.5817 28 20 28Z" fill="#FFC052"/>
<path d="M28.0001 20C28.0001 22.1217 27.1572 24.1566 25.6569 25.6569C24.1566 27.1571 22.1218 28 20.0001 28C17.8783 28 15.8435 27.1571 14.3432 25.6569C12.8429 24.1566 12.0001 22.1217 12.0001 20C11.999 19.7496 12.0107 19.4992 12.0351 19.25C12.2212 21.2336 13.1408 23.0764 14.614 24.4177C16.0871 25.7591 18.0077 26.5025 20.0001 26.5025C21.9924 26.5025 23.913 25.7591 25.3862 24.4177C26.8593 23.0764 27.7789 21.2336 27.9651 19.25C27.9894 19.4992 28.0011 19.7496 28.0001 20Z" fill="#F0A53B"/>
<path d="M28.13 11.8701C29.1996 12.9365 30.0479 14.2037 30.6262 15.5989C31.2045 16.9941 31.5015 18.4898 31.5 20.0001H30.5C30.5021 18.6212 30.2311 17.2555 29.7024 15.9819C29.1738 14.7084 28.398 13.5522 27.42 12.5801L28.13 11.8701ZM20 30.5001C21.3789 30.5022 22.7446 30.2311 24.0182 29.7025C25.2917 29.1738 26.448 28.3981 27.42 27.4201L28.13 28.1301C27.0636 29.1996 25.7965 30.0479 24.4013 30.6263C23.0061 31.2046 21.5103 31.5016 20 31.5001V30.5001ZM12.58 27.4201L11.87 28.1301C10.4671 26.7306 9.45217 24.9903 8.92502 23.0801C8.64089 22.0782 8.49784 21.0415 8.50002 20.0001H9.50002C9.4979 21.379 9.76899 22.7447 10.2976 24.0183C10.8263 25.2918 11.602 26.448 12.58 27.4201V27.4201ZM20 8.5001V9.5001C18.6211 9.49798 17.2554 9.76907 15.9819 10.2977C14.7083 10.8264 13.5521 11.6021 12.58 12.5801L11.87 11.8701C13.695 10.0449 16.0817 8.88762 18.645 8.5851C19.0943 8.52645 19.547 8.49805 20 8.5001Z" fill="#FFAF3F"/>
<path d="M12.5801 27.42C13.5522 28.398 14.7084 29.1737 15.9819 29.7024C17.2555 30.231 18.6212 30.5021 20.0001 30.5V31.5C18.4898 31.5015 16.9941 31.2045 15.5989 30.6262C14.2037 30.0478 12.9365 29.1995 11.8701 28.13L12.5801 27.42ZM12.5801 12.58C11.6021 13.5521 10.8264 14.7083 10.2977 15.9818C9.76907 17.2554 9.49798 18.6211 9.5001 20H8.5001C8.49805 19.5469 8.52645 19.0943 8.5851 18.645C8.78437 16.9106 9.38156 15.2457 10.3301 13.78C10.7742 13.0905 11.2904 12.4502 11.8701 11.87L12.5801 12.58ZM23.0801 8.925C24.9903 9.45214 26.7306 10.467 28.1301 11.87L27.4201 12.58C26.448 11.602 25.2918 10.8263 24.0183 10.2976C22.7447 9.76897 21.379 9.49788 20.0001 9.5V8.5C20.3351 8.5 20.6651 8.515 20.9901 8.545C21.6976 8.60205 22.3978 8.72934 23.0801 8.925V8.925ZM30.5001 20H31.5001C31.5016 21.5103 31.2046 23.006 30.6263 24.4012C30.0479 25.7964 29.1996 27.0636 28.1301 28.13L27.4201 27.42C28.3981 26.4479 29.1738 25.2917 29.7025 24.0182C30.2311 22.7446 30.5022 21.3789 30.5001 20Z" fill="#F09413"/>
<path d="M29.5 20H30.5C30.5021 21.3789 30.231 22.7446 29.7024 24.0182C29.1738 25.2917 28.398 26.4479 27.42 27.42L26.715 26.715L25.74 25.74L25.66 25.66C26.403 24.9167 26.9921 24.0342 27.3936 23.063C27.7951 22.0918 28.0012 21.051 28 20H29.5ZM14.26 25.74L14.34 25.66C15.0833 26.403 15.9658 26.9921 16.937 27.3936C17.9082 27.7951 18.9491 28.0012 20 28V30.5C18.6211 30.5021 17.2554 30.231 15.9819 29.7024C14.7083 29.1738 13.5521 28.398 12.58 27.42L13.285 26.715L14.26 25.74ZM14.26 14.26L14.34 14.34C13.5971 15.0833 13.008 15.9658 12.6064 16.937C12.2049 17.9082 11.9988 18.9491 12 20H9.50001C9.49789 18.6211 9.76898 17.2554 10.2976 15.9819C10.8263 14.7083 11.602 13.5521 12.58 12.58L13.285 13.285L14.26 14.26ZM25.74 14.26L25.66 14.34C24.9167 13.5971 24.0342 13.008 23.063 12.6064C22.0918 12.2049 21.051 11.9988 20 12V9.50001C21.3789 9.49789 22.7446 9.76898 24.0182 10.2976C25.2917 10.8263 26.4479 11.602 27.42 12.58L26.715 13.285L25.74 14.26Z" fill="#FFAF3F"/>
<path d="M14.34 25.66L14.26 25.74L13.285 26.715L12.58 27.42C11.602 26.4479 10.8263 25.2917 10.2976 24.0182C9.76898 22.7446 9.49789 21.3789 9.50001 20H12C11.9988 21.051 12.2049 22.0918 12.6064 23.063C13.008 24.0342 13.5971 24.9167 14.34 25.66ZM20 10.5V12C18.9491 11.9988 17.9082 12.2049 16.937 12.6064C15.9658 13.008 15.0833 13.5971 14.34 14.34L14.26 14.26L13.285 13.285L12.58 12.58C13.5521 11.602 14.7083 10.8263 15.9819 10.2976C17.2554 9.76898 18.6211 9.49789 20 9.50001V10.5ZM30.5 20H28C28.0012 18.9491 27.7951 17.9082 27.3936 16.937C26.9921 15.9658 26.403 15.0833 25.66 14.34L25.74 14.26L26.715 13.285L27.42 12.58C28.398 13.5521 29.1738 14.7083 29.7024 15.9819C30.231 17.2554 30.5021 18.6211 30.5 20ZM26.715 26.715L27.42 27.42C26.4479 28.398 25.2917 29.1738 24.0182 29.7024C22.7446 30.231 21.3789 30.5021 20 30.5V28C21.051 28.0012 22.0918 27.7951 23.063 27.3936C24.0342 26.9921 24.9167 26.403 25.66 25.66L25.74 25.74L26.715 26.715Z" fill="#FFCB52"/>
<path d="M20 12C18.4178 12 16.871 12.4692 15.5554 13.3482C14.2398 14.2273 13.2145 15.4767 12.609 16.9385C12.0035 18.4003 11.845 20.0089 12.1537 21.5607C12.4624 23.1126 13.2243 24.538 14.3431 25.6569C15.462 26.7757 16.8874 27.5376 18.4393 27.8463C19.9911 28.155 21.5997 27.9965 23.0615 27.391C24.5233 26.7855 25.7727 25.7602 26.6518 24.4446C27.5308 23.129 28 21.5823 28 20C28 17.8783 27.1571 15.8434 25.6569 14.3431C24.1566 12.8429 22.1217 12 20 12ZM20 27.5C18.5166 27.5 17.0666 27.0601 15.8332 26.236C14.5999 25.4119 13.6386 24.2406 13.0709 22.8701C12.5032 21.4997 12.3547 19.9917 12.6441 18.5368C12.9335 17.082 13.6478 15.7456 14.6967 14.6967C15.7456 13.6478 17.082 12.9335 18.5368 12.6441C19.9917 12.3547 21.4997 12.5032 22.8701 13.0709C24.2406 13.6386 25.4119 14.5999 26.236 15.8332C27.0601 17.0666 27.5 18.5166 27.5 20C27.5 21.9891 26.7098 23.8968 25.3033 25.3033C23.8968 26.7098 21.9891 27.5 20 27.5Z" fill="#C97C10"/>
<path d="M20.4998 19.4998V17.4998H21.9998V16.4998H20.4998V15.4998H19.4998V16.4998C18.9694 16.4998 18.4607 16.7106 18.0856 17.0856C17.7106 17.4607 17.4998 17.9694 17.4998 18.4998C17.4998 19.0303 17.7106 19.539 18.0856 19.9141C18.4607 20.2891 18.9694 20.4998 19.4998 20.4998V22.4998H17.9998V23.4998H19.4998V24.4998H20.4998V23.4998C21.0303 23.4998 21.539 23.2891 21.9141 22.9141C22.2891 22.539 22.4998 22.0303 22.4998 21.4998C22.4998 20.9694 22.2891 20.4607 21.9141 20.0856C21.539 19.7106 21.0303 19.4998 20.4998 19.4998ZM18.7933 19.2063C18.6537 19.0665 18.5587 18.8884 18.5202 18.6946C18.4817 18.5008 18.5015 18.2999 18.5771 18.1173C18.6527 17.9347 18.7807 17.7787 18.9449 17.6688C19.1091 17.5589 19.3022 17.5001 19.4998 17.4998V19.4998C19.3685 19.5001 19.2385 19.4742 19.1172 19.4239C18.9959 19.3735 18.8859 19.2995 18.7933 19.2063V19.2063ZM21.2063 22.2063C21.1138 22.2995 21.0038 22.3735 20.8825 22.4239C20.7612 22.4742 20.6312 22.5001 20.4998 22.4998V20.4998C20.6975 20.5001 20.8906 20.5589 21.0548 20.6688C21.219 20.7787 21.347 20.9347 21.4226 21.1173C21.4982 21.2999 21.518 21.5008 21.4795 21.6946C21.441 21.8884 21.346 22.0665 21.2063 22.2063V22.2063ZM24.0033 20.0273C23.8879 20.8001 23.6157 21.5411 23.2033 22.2048C23.0695 22.366 22.9999 22.571 23.0078 22.7803C23.0513 22.9319 23.1483 23.0625 23.2808 23.1478C23.5378 23.3242 23.8319 23.4388 24.1404 23.4829C24.4489 23.5269 24.7633 23.4992 25.0593 23.4018C25.6432 23.2065 26.1446 22.8209 26.4833 22.3068C26.7901 21.8819 26.9675 21.3774 26.9942 20.854C27.0208 20.3306 26.8955 19.8107 26.6333 19.3568C26.4205 19.0085 26.0997 18.7392 25.7198 18.5898C25.5103 18.5155 25.2877 18.4854 25.0659 18.5013C24.8442 18.5172 24.6281 18.5788 24.4313 18.6823C24.0533 18.9623 24.0633 19.6208 24.0033 20.0273ZM17.0998 16.7193C16.542 17.0883 16.0656 17.5674 15.6998 18.1273C15.6028 18.2773 15.4998 18.4418 15.3233 18.4878C15.1874 18.5118 15.0474 18.4881 14.9268 18.4208C14.6909 18.3007 14.4865 18.1267 14.3301 17.9129C14.1738 17.6992 14.0699 17.4516 14.0268 17.1903C13.9509 16.6805 14.0571 16.1601 14.3268 15.7208C14.5531 15.3272 14.8853 15.005 15.2856 14.7909C15.6859 14.5768 16.1384 14.4794 16.5913 14.5098C16.9459 14.5373 17.2828 14.6753 17.5548 14.9043C17.6942 15.0295 17.8051 15.183 17.8801 15.3547C17.955 15.5263 17.9923 15.7121 17.9893 15.8993C17.9198 16.2853 17.3968 16.5233 17.0998 16.7193Z" fill="#FFDF75"/>
<path d="M27.071 27.071L27.421 27.421C28.399 26.4487 29.1746 25.2923 29.7031 24.0186C30.2315 22.7449 30.5024 21.379 30.5 20H30C30.0017 21.3135 29.7438 22.6143 29.2411 23.8278C28.7385 25.0413 28.001 26.1435 27.071 27.071ZM12.929 27.071L12.579 27.421C13.5513 28.399 14.7077 29.1746 15.9814 29.7031C17.2552 30.2315 18.621 30.5024 20 30.5V30C18.6866 30.0017 17.3857 29.7438 16.1722 29.2411C14.9588 28.7385 13.8566 28.001 12.929 27.071V27.071ZM12.929 12.929L12.579 12.579C11.6011 13.5513 10.8255 14.7077 10.297 15.9814C9.7685 17.2552 9.49763 18.621 9.50002 20H10C9.99834 18.6866 10.2562 17.3857 10.7589 16.1722C11.2616 14.9588 11.9991 13.8566 12.929 12.929V12.929ZM27.071 12.929L27.421 12.579C26.4487 11.6011 25.2923 10.8255 24.0186 10.297C22.7449 9.7685 21.379 9.49763 20 9.50002V10C21.3135 9.99834 22.6143 10.2562 23.8278 10.7589C25.0413 11.2616 26.1435 11.9991 27.071 12.929Z" fill="#FAD039"/>
<path d="M10 20H9.50001C9.49789 21.3789 9.76898 22.7446 10.2976 24.0182C10.8263 25.2917 11.602 26.4479 12.58 27.42L12.93 27.07C12 26.1427 11.2624 25.0407 10.7595 23.8274C10.2567 22.6141 9.9986 21.3134 10 20V20ZM20 10V9.50001C18.6211 9.49789 17.2554 9.76898 15.9819 10.2976C14.7083 10.8263 13.5521 11.602 12.58 12.58L12.93 12.93C13.8574 12 14.9593 11.2624 16.1726 10.7595C17.3859 10.2567 18.6866 9.9986 20 10V10ZM27.071 12.929C28.001 13.8566 28.7385 14.9587 29.2411 16.1722C29.7438 17.3857 30.0017 18.6866 30 20H30.5C30.5021 18.6211 30.231 17.2554 29.7024 15.9819C29.1738 14.7083 28.398 13.5521 27.42 12.58L27.071 12.929ZM20 30V30.5C21.3789 30.5021 22.7446 30.231 24.0182 29.7024C25.2917 29.1738 26.4479 28.398 27.42 27.42L27.07 27.07C26.1427 28 25.0407 28.7377 23.8274 29.2405C22.6141 29.7433 21.3134 30.0014 20 30Z" fill="#FFDF75"/>
<path d="M20.5 23.9292C20.8453 23.8427 21.1609 23.6646 21.4135 23.4137C21.4967 23.329 21.5723 23.2371 21.6395 23.1392C21.3059 23.3739 20.9079 23.4999 20.5 23.5002V23.9292Z" fill="#F0A53B"/>
<path d="M19.5 23.5H18V23H17.5V24H19V25H20V24.5H19.5V23.5Z" fill="#F0A53B"/>
<path d="M19.4997 20.4999C19.1343 20.5006 18.7757 20.401 18.463 20.2119C18.1504 20.0229 17.8956 19.7516 17.7265 19.4277C17.5573 19.1038 17.4804 18.7397 17.504 18.3751C17.5275 18.0104 17.6507 17.6593 17.8602 17.3599C17.5115 17.6032 17.2495 17.9513 17.1122 18.3536C16.9748 18.756 16.9692 19.1916 17.0962 19.5974C17.2232 20.0031 17.4762 20.3578 17.8185 20.61C18.1608 20.8622 18.5745 20.9988 18.9997 20.9999V22.4999H19.4997V20.4999Z" fill="#F0A53B"/>
<path d="M21.5 17.5H20.5V18H21.5V17.5Z" fill="#F0A53B"/>
<path d="M19.4998 16H18.9998V16.571C19.1628 16.526 19.3308 16.5021 19.4998 16.5V16ZM21.4998 21.5C21.4998 21.2348 21.3945 20.9804 21.207 20.7929C21.0194 20.6054 20.7651 20.5 20.4998 20.5V21.139C20.7148 21.261 20.8762 21.4592 20.9521 21.6945C21.028 21.9297 21.0129 22.1848 20.9098 22.4095C21.02 22.3602 21.1205 22.2914 21.2063 22.2065C21.2996 22.114 21.3736 22.004 21.424 21.8827C21.4744 21.7614 21.5001 21.6313 21.4998 21.5V21.5ZM18.5898 18.09C18.7186 18.0312 18.8583 18.0005 18.9998 18V19.361C19.1512 19.451 19.3238 19.499 19.4998 19.5V17.5C19.3075 17.5004 19.1193 17.5563 18.9579 17.6609C18.7965 17.7656 18.6687 17.9146 18.5898 18.09Z" fill="#F0A53B"/>
<path d="M19.65 5.9049C19.5204 5.7044 19.4668 5.46412 19.4989 5.22753C19.531 4.99093 19.6467 4.77362 19.825 4.6149L20 4.4549L20.37 4.1249C18.916 2.56994 17.0559 1.45283 15 0.899902V1.6999C14.9701 1.93708 14.8489 2.15326 14.6622 2.30261C14.4755 2.45195 14.238 2.52272 14 2.4999H10C9.76206 2.52272 9.52455 2.45195 9.33787 2.30261C9.15119 2.15326 9.03001 1.93708 9.00003 1.6999V0.899902C6.94605 1.45107 5.08751 2.56654 3.63503 4.1199L4.00503 4.4499L4.18503 4.6149C4.36217 4.77442 4.47697 4.99161 4.50901 5.22782C4.54106 5.46403 4.48827 5.70396 4.36003 5.9049L2.53003 9.4299C2.27503 9.9199 1.79003 10.1299 1.44003 9.9049L1.22003 9.8099L0.755032 9.6099C0.583595 10.395 0.498092 11.1963 0.500032 11.9999C0.498911 12.8015 0.582712 13.601 0.750032 14.3849L1.22003 14.1849L1.44003 14.0899C1.79003 13.8649 2.27503 14.0799 2.53003 14.5649L4.36003 18.0949C4.48797 18.2959 4.54059 18.5358 4.50855 18.7719C4.47652 19.0081 4.3619 19.2252 4.18503 19.3849L3.63003 19.8799C5.06874 21.4113 6.90033 22.5182 8.92503 23.0799C8.86675 22.8943 8.81835 22.7057 8.78003 22.5149C8.59259 21.6897 8.49867 20.8461 8.50003 19.9999C8.50003 19.7349 8.51003 19.4699 8.53003 19.2099C8.54003 19.0299 8.55503 18.8499 8.58003 18.6749C7.528 18.1358 6.61829 17.3557 5.92511 16.3981C5.23193 15.4406 4.77491 14.3327 4.59133 13.1649C4.40776 11.9972 4.50281 10.8025 4.86876 9.67848C5.2347 8.55443 5.86116 7.5328 6.69704 6.69691C7.53293 5.86103 8.55456 5.23457 9.67861 4.86863C10.8027 4.50268 11.9973 4.40763 13.1651 4.5912C14.3328 4.77478 15.4407 5.2318 16.3982 5.92498C17.3558 6.61816 18.1359 7.52787 18.675 8.5799C18.85 8.5549 19.03 8.5399 19.21 8.5299C19.47 8.5099 19.735 8.4999 20 8.4999C20.3407 8.49885 20.6811 8.51554 21.02 8.5499L19.65 5.9049Z" fill="#D1013E"/>
<path d="M12.0003 4.5C10.3171 4.49993 8.68272 5.0661 7.36023 6.10742C6.03775 7.14874 5.104 8.60466 4.70921 10.241C4.31442 11.8772 4.48155 13.5988 5.1837 15.1286C5.88586 16.6584 7.08221 17.9075 8.5803 18.675C8.59478 18.4987 8.61982 18.3233 8.6553 18.15C8.90179 16.5922 9.47242 15.1035 10.3303 13.78C9.74588 12.9702 8.93532 12.3509 8.0003 12C10.2853 11.355 12.0003 7.5 12.0003 7.5C12.4729 8.51495 13.0673 9.46862 13.7703 10.34C15.0953 9.476 16.5879 8.90179 18.1503 8.655C18.3236 8.61952 18.499 8.59448 18.6753 8.58C18.0455 7.35183 17.0892 6.32115 15.9116 5.60133C14.7339 4.8815 13.3805 4.50042 12.0003 4.5V4.5Z" fill="#FFFCED"/>
<path d="M13.77 10.34C12.3892 11.2258 11.2158 12.3992 10.33 13.78C9.74558 12.9702 8.93502 12.3509 8 12C10.285 11.355 12 7.5 12 7.5C12.4726 8.51495 13.067 9.46862 13.77 10.34V10.34Z" fill="#D1013E"/>
<path d="M1.44 14.09C1.79 13.865 2.275 14.08 2.53 14.565L4.36 18.095C4.48794 18.296 4.54055 18.5359 4.50852 18.772C4.47649 19.0082 4.36187 19.2253 4.185 19.385L3.63 19.88C2.18342 18.3477 1.18696 16.4465 0.75 14.385L1.44 14.09ZM2.53 9.43C2.275 9.92 1.79 10.13 1.44 9.905L0.755 9.61C1.18783 7.54852 2.18491 5.64783 3.635 4.12L4.185 4.615C4.36213 4.77452 4.47694 4.99171 4.50898 5.22792C4.54102 5.46413 4.48823 5.70405 4.36 5.905L2.53 9.43ZM15 0.9V1.7C14.97 1.93718 14.8488 2.15336 14.6622 2.30271C14.4755 2.45205 14.238 2.52282 14 2.5H10C9.76202 2.52282 9.52452 2.45205 9.33784 2.30271C9.15115 2.15336 9.02998 1.93718 9 1.7V0.9C10.9644 0.366667 13.0356 0.366667 15 0.9V0.9ZM23.08 8.925C22.8961 8.86672 22.7091 8.81832 22.52 8.78C22.0262 8.66736 21.5249 8.5905 21.02 8.55L19.65 5.905C19.5204 5.70449 19.4667 5.46422 19.4988 5.22762C19.5309 4.99103 19.6466 4.77372 19.825 4.615L20 4.455L20.37 4.125C21.6518 5.47968 22.5822 7.1277 23.08 8.925V8.925Z" fill="#F7F3E1"/>
<path d="M11.9997 4C10.1866 3.99918 8.42702 4.61427 7.00928 5.74447C5.59155 6.87467 4.59978 8.45293 4.1965 10.2206C3.79323 11.9883 4.00237 13.8405 4.78965 15.4738C5.57693 17.107 6.89566 18.4244 8.52971 19.21C8.53971 19.03 8.55471 18.85 8.57971 18.675C7.52767 18.1359 6.61796 17.3558 5.92479 16.3982C5.23161 15.4407 4.77459 14.3328 4.59101 13.165C4.40743 11.9973 4.50249 10.8026 4.86843 9.67858C5.23437 8.55453 5.86083 7.53289 6.69672 6.69701C7.5326 5.86113 8.55423 5.23467 9.67828 4.86872C10.8023 4.50278 11.997 4.40772 13.1647 4.5913C14.3325 4.77488 15.4404 5.2319 16.3979 5.92508C17.3555 6.61826 18.1356 7.52796 18.6747 8.58C18.8497 8.555 19.0297 8.54 19.2097 8.53C18.5563 7.1727 17.533 6.02746 16.2575 5.22606C14.982 4.42466 13.5061 3.99967 11.9997 4V4Z" fill="#A80132"/>
<path d="M12 4.5C10.3168 4.49993 8.68242 5.0661 7.35993 6.10742C6.03744 7.14874 5.10369 8.60466 4.70891 10.241C4.31412 11.8772 4.48124 13.5988 5.1834 15.1286C5.88555 16.6584 7.08191 17.9075 8.58 18.675C8.59448 18.4987 8.61952 18.3233 8.655 18.15C7.69897 17.6295 6.87751 16.8933 6.25586 15.9997C5.63421 15.1062 5.22952 14.0799 5.07393 13.0026C4.91834 11.9252 5.01615 10.8265 5.35958 9.79354C5.70302 8.76061 6.28261 7.82201 7.05231 7.05231C7.82201 6.28261 8.76061 5.70302 9.79354 5.35958C10.8265 5.01615 11.9252 4.91834 13.0026 5.07393C14.0799 5.22952 15.1062 5.63421 15.9997 6.25586C16.8933 6.87751 17.6295 7.69897 18.15 8.655C18.3233 8.61952 18.4987 8.59448 18.675 8.58C18.0452 7.35183 17.0889 6.32115 15.9113 5.60133C14.7336 4.8815 13.3802 4.50042 12 4.5V4.5ZM4.185 19.385L3.63 19.88C2.18342 18.3477 1.18696 16.4465 0.75 14.385L1.44 14.09C1.79 13.865 2.275 14.08 2.53 14.565L4.36 18.095C4.48794 18.296 4.54055 18.5359 4.50852 18.772C4.47649 19.0082 4.36187 19.2253 4.185 19.385V19.385Z" fill="#E3DECB"/>
<path d="M1.00003 11.9999C0.999809 11.2643 1.07301 10.5305 1.21853 9.8094L0.755034 9.6094C0.58356 10.3946 0.498057 11.1962 0.500034 11.9999C0.498912 12.8015 0.582713 13.601 0.750034 14.3849L1.21803 14.1849C1.07294 13.4656 0.999917 12.7337 1.00003 11.9999V11.9999ZM9.00003 1.4174V0.899902C6.94605 1.45107 5.08751 2.56654 3.63503 4.1199L4.00303 4.4514C5.36435 3.00762 7.09107 1.95921 9.00003 1.4174V1.4174ZM8.92503 23.0799C6.90033 22.5182 5.06874 21.4113 3.63003 19.8799L4.00003 19.5499C5.30978 20.9354 6.95686 21.9571 8.78003 22.5149C8.81835 22.7057 8.86675 22.8943 8.92503 23.0799V23.0799ZM20 4.4559L20.3685 4.1249C18.9149 2.57018 17.0553 1.45309 15 0.899902V1.4174C16.9106 1.95997 18.6385 3.00999 20 4.4559Z" fill="#8F0029"/>
<path d="M1.218 14.1851L0.75 14.3851C1.18696 16.4465 2.18342 18.3478 3.63 19.8801L4.0025 19.5481C2.59036 18.0565 1.62556 16.1982 1.218 14.1851V14.1851Z" fill="#C7C3B2"/>
<path d="M4.00288 4.45L3.63488 4.12C2.18479 5.64783 1.18771 7.54852 0.754883 9.61L1.21838 9.81C1.6266 7.79794 2.59135 5.94084 4.00288 4.45V4.45ZM11.9999 1C13.0144 1.00016 14.0239 1.14066 14.9999 1.4175V0.9C13.0354 0.366667 10.9643 0.366667 8.99988 0.9V1.4175C9.97585 1.14066 10.9854 1.00016 11.9999 1V1ZM23.0799 8.925C22.8959 8.86672 22.709 8.81832 22.5199 8.78C22.0251 7.1631 21.1626 5.68276 19.9999 4.455L20.3699 4.125C21.6517 5.47968 22.5821 7.1277 23.0799 8.925V8.925Z" fill="#E3DECB"/>
<path d="M2.5 12.5C2.77614 12.5 3 12.2761 3 12C3 11.7239 2.77614 11.5 2.5 11.5C2.22386 11.5 2 11.7239 2 12C2 12.2761 2.22386 12.5 2.5 12.5Z" fill="#FFFCED"/>
<path d="M7 20.5C7.27614 20.5 7.5 20.2761 7.5 20C7.5 19.7239 7.27614 19.5 7 19.5C6.72386 19.5 6.5 19.7239 6.5 20C6.5 20.2761 6.72386 20.5 7 20.5Z" fill="#FFFCED"/>
<path d="M7 4.5C7.27614 4.5 7.5 4.27614 7.5 4C7.5 3.72386 7.27614 3.5 7 3.5C6.72386 3.5 6.5 3.72386 6.5 4C6.5 4.27614 6.72386 4.5 7 4.5Z" fill="#FFFCED"/>
<path d="M17 4.5C17.2761 4.5 17.5 4.27614 17.5 4C17.5 3.72386 17.2761 3.5 17 3.5C16.7239 3.5 16.5 3.72386 16.5 4C16.5 4.27614 16.7239 4.5 17 4.5Z" fill="#FFFCED"/>
<path d="M18.6401 8.52002C18.6536 8.53889 18.6653 8.55897 18.6751 8.58002C18.7801 8.56502 18.8851 8.55502 18.9951 8.54502C18.8801 8.53502 18.7601 8.52502 18.6401 8.52002ZM8.50009 20C8.50009 19.735 8.51009 19.47 8.53009 19.21C8.54009 19.03 8.55509 18.85 8.58009 18.675C7.92873 18.3375 7.32926 17.9081 6.80009 17.4C6.7493 17.5907 6.71088 17.7844 6.68509 17.98C6.55999 18.646 6.49805 19.3224 6.50009 20C6.49786 20.5322 6.5363 21.0637 6.61509 21.59C6.64009 21.8 6.67509 22.01 6.71509 22.215H6.72009C7.42388 22.5773 8.16268 22.8672 8.92509 23.08C8.86681 22.8944 8.81841 22.7058 8.78009 22.515C8.59265 21.6899 8.49873 20.8462 8.50009 20V20Z" fill="#8F0029"/>
<path d="M18.6398 8.52001C18.4498 8.50501 18.2548 8.50001 18.0598 8.50001H17.9998C16.3351 8.49798 14.6901 8.85976 13.1798 9.56001C13.3598 9.82001 13.5598 10.085 13.7698 10.34C15.0948 9.47601 16.5874 8.90179 18.1498 8.65501C18.3231 8.61953 18.4985 8.59448 18.6748 8.58001C18.665 8.55896 18.6533 8.53888 18.6398 8.52001ZM9.17981 12.63C8.14636 13.8601 7.3847 15.2948 6.9448 16.84C6.8898 17.025 6.8398 17.21 6.7998 17.4C7.32897 17.9081 7.92844 18.3375 8.5798 18.675C8.59428 18.4987 8.61933 18.3234 8.6548 18.15C8.90129 16.5922 9.47192 15.1035 10.3298 13.78C9.99146 13.3542 9.60563 12.9684 9.17981 12.63V12.63Z" fill="#E3DECB"/>
<path d="M13.7697 10.3401C12.3889 11.2259 11.2155 12.3992 10.3297 13.7801C9.99134 13.3542 9.60551 12.9684 9.17969 12.6301C10.267 11.3208 11.6338 10.2718 13.1797 9.56006C13.3597 9.82006 13.5597 10.0851 13.7697 10.3401Z" fill="#A80132"/>
<path d="M18.6396 8.52002C18.6531 8.53889 18.6648 8.55897 18.6746 8.58002C18.7796 8.56502 18.8846 8.55502 18.9946 8.54502C18.8796 8.53502 18.7596 8.52502 18.6396 8.52002ZM6.68457 17.98C7.24096 18.4718 7.86164 18.8856 8.52957 19.21C8.53957 19.03 8.55457 18.85 8.57957 18.675C7.9282 18.3375 7.32874 17.9081 6.79957 17.4C6.74877 17.5907 6.71036 17.7844 6.68457 17.98V17.98Z" fill="#8F0029"/>
<path d="M18.6398 8.52C18.4498 8.505 18.2548 8.5 18.0598 8.5C18.0898 8.55 18.1198 8.6 18.1498 8.655C18.3231 8.61952 18.4985 8.59448 18.6748 8.58C18.665 8.55895 18.6533 8.53887 18.6398 8.52V8.52ZM6.7998 17.4C7.32897 17.9081 7.92844 18.3375 8.5798 18.675C8.59428 18.4987 8.61933 18.3233 8.6548 18.15C8.02123 17.8033 7.44454 17.3615 6.9448 16.84C6.8898 17.025 6.8398 17.21 6.7998 17.4Z" fill="#E3DECB"/>
<path d="M8.92524 23.0798C8.16282 22.867 7.42402 22.5772 6.72023 22.2148H6.71523C6.67523 22.0098 6.64023 21.7998 6.61523 21.5898C7.30153 21.9752 8.0274 22.2853 8.78023 22.5148C8.81855 22.7056 8.86695 22.8942 8.92524 23.0798V23.0798Z" fill="#8F0029"/>
<path d="M7 20.5C7.27614 20.5 7.5 20.2761 7.5 20C7.5 19.7239 7.27614 19.5 7 19.5C6.72386 19.5 6.5 19.7239 6.5 20C6.5 20.2761 6.72386 20.5 7 20.5Z" fill="#E3DECB"/>
</svg>
