<svg width="32" height="32" viewBox="0 0 32 32" fill="none" xmlns="http://www.w3.org/2000/svg">
<path d="M3.65645 21.8064L3.79395 20.4002C3.80645 20.2939 3.99395 18.4877 4.9127 16.5502H2.0752V10.6564H5.0877V10.6752C5.3377 10.6252 5.59395 10.5939 5.8502 10.5939C6.4627 10.5939 7.0752 10.7502 7.66895 11.0502C7.9752 11.2064 8.2877 11.2877 8.6002 11.2877C9.34395 11.2877 9.9002 10.8439 9.9002 10.8439L10.6689 10.2002L11.3502 10.9752L12.8002 12.6439L11.8627 13.5189C11.8252 13.5564 11.3189 14.0752 10.8189 15.1064C10.3127 16.1502 9.70645 17.9439 9.70645 20.5502V21.8189H3.65645V21.8064ZM5.1377 16.1127C5.31895 15.7689 5.5252 15.4252 5.75645 15.0939C5.7002 15.0752 5.6502 15.0627 5.60645 15.0627C5.4252 15.0627 5.24395 15.2127 5.1377 15.3127V16.1127Z" fill="#E6E7E8"/>
<path d="M4 21.5V20.5375C4.01875 20.3687 3.89375 17.3375 6 15C5.7125 14.9562 6.1127 14.8875 5.8502 14.7562C5.7002 14.6812 5.64375 14.7562 5.5 14.7562C5.125 14.7562 5.2 14.8 5 15C5.2873 15.2062 5 15.3125 5 15.5L4.7127 16.175L2.5 16.5L2 11H4.5L5 10.9997C5.3625 10.831 5.45 11 6 11C6.525 11 6.9002 11.4312 7.4127 11.6937C7.8002 11.8937 8.2002 11.9937 8.6002 11.9937C9.5627 11.9937 10.2627 11.4187 10.2689 11.4125L10.6127 11.125L10.9127 11.4687L11.8814 12.5812L11.4627 12.9687C11.4564 12.975 10.8627 13.5437 10.2752 14.7562C9.73145 15.875 9.5 17.7875 9.5 20.5375V21.5H4Z" fill="#D1013E"/>
<path d="M9.7123 22.3623H3.65605C3.4998 22.3623 3.3498 22.2936 3.24355 22.1811C3.1373 22.0623 3.0873 21.9061 3.0998 21.7498L3.2373 20.3436C3.25605 20.1686 3.40605 18.7748 4.0623 17.1061H2.0748C1.76855 17.1061 1.51855 16.8561 1.51855 16.5498V10.6561C1.51855 10.3498 1.76855 10.0998 2.0748 10.0998H5.0873C5.0998 10.0998 5.1123 10.0998 5.11855 10.0998C6.05605 9.93732 7.01855 10.0936 7.91855 10.5561C8.14355 10.6686 8.3748 10.7311 8.5998 10.7311C9.0998 10.7311 9.50605 10.4436 9.55605 10.4061L10.3123 9.76857C10.5436 9.57482 10.8873 9.59982 11.0873 9.82482L11.7686 10.5998L13.2186 12.2686C13.4186 12.4936 13.3998 12.8373 13.1748 13.0436L12.2498 13.9123C12.1936 13.9748 11.7623 14.4373 11.3186 15.3436C10.8373 16.3373 10.2623 18.0436 10.2623 20.5436V21.8123C10.2686 22.1123 10.0186 22.3623 9.7123 22.3623ZM4.26855 21.2498H9.1498V20.5436C9.1498 17.8373 9.7873 15.9561 10.3186 14.8561C10.8498 13.7498 11.4061 13.1811 11.4686 13.1186C11.4748 13.1123 11.4811 13.1061 11.4811 13.1061L12.0248 12.5998L10.6123 10.9748L10.2623 11.2686C10.2248 11.2998 9.5373 11.8436 8.5998 11.8436C8.19355 11.8436 7.79355 11.7436 7.4123 11.5498C6.6873 11.1811 5.93105 11.0686 5.1998 11.2248C5.11855 11.2436 5.03105 11.2373 4.9498 11.2186H2.63105V15.9998H4.5748V15.3123C4.5748 15.1623 4.6373 15.0186 4.74355 14.9123C5.1373 14.5311 5.54355 14.4123 5.95605 14.5748C6.1123 14.6373 6.2373 14.7686 6.2873 14.9311C6.3373 15.0936 6.31231 15.2686 6.21231 15.4123C6.00606 15.7123 5.80605 16.0373 5.6248 16.3748C5.5873 16.4498 5.53105 16.5123 5.46855 16.5561C5.46855 16.6373 5.4498 16.7186 5.4123 16.7936C4.53105 18.6561 4.3498 20.3873 4.34355 20.4561L4.26855 21.2498Z" fill="#A80132"/>
<path d="M5.08125 20.3626C5.21875 19.4563 5.94375 15.6751 8.89375 13.9751L8.75625 13.6626C8.69375 13.7001 8.1 14.0251 7.34375 14.0251C6.975 14.0251 6.625 13.9438 6.3 13.7876C6.06875 13.6751 5.8375 13.6188 5.6 13.6188C5.025 13.6188 4.5625 13.9563 4.28125 14.2438C4.05625 14.4688 3.9125 14.7751 3.875 15.1126H3.34375V12.1001H3.81875V12.9376L4.075 12.7001C4.08125 12.6938 4.79375 12.0376 5.85 12.0376C6.2875 12.0376 6.71875 12.1501 7.15 12.3688C7.61875 12.6063 8.10625 12.7313 8.60625 12.7313C9.5625 12.7313 10.2813 12.2876 10.55 12.0938L10.9312 12.5376C10.4125 13.1001 8.49375 15.5001 8.45 20.3688H5.08125V20.3626Z" fill="#D1013E"/>
<path d="M4.9122 17.1064C4.83095 17.1064 4.74345 17.0877 4.6622 17.0439C4.3872 16.9064 4.2747 16.5689 4.4122 16.2939L4.63095 15.8502C4.76845 15.5752 5.10595 15.4627 5.38095 15.6002C5.65595 15.7377 5.76845 16.0752 5.63095 16.3502L5.4122 16.7939C5.3122 16.9939 5.11845 17.1064 4.9122 17.1064Z" fill="#A80132"/>
<path d="M11.3566 24.3813C11.3566 24.3813 12.2316 15.4313 18.7879 11.6563C18.7879 11.6563 16.3379 13.1 13.8941 11.9063C12.3629 11.1625 11.1129 11.9875 10.3816 12.7188C9.94414 13.1563 9.69414 13.7813 9.69414 14.4438H8.11914V8.07504H9.60664V9.28754C9.60664 9.28754 12.2316 6.82504 15.7254 8.61254C19.2191 10.4 22.0691 7.96254 22.0691 7.96254L23.1816 9.24379C23.1816 9.24379 18.3504 13.7438 18.3504 24.3813H11.3566V24.3813Z" fill="#D04527"/>
<path d="M10.3129 25.4376L10.4254 24.2626C10.4566 23.9439 11.1066 17.7938 15.0941 13.3688C14.5441 13.2876 14.0191 13.1188 13.5191 12.8751C13.2379 12.7376 12.9566 12.6688 12.6816 12.6688C11.9754 12.6688 11.3754 13.1251 10.9879 13.5063C10.7566 13.7376 10.6191 14.0751 10.6191 14.4313V15.4876H7.18164V7.0126H10.5316V7.4876C11.2191 7.16885 12.1066 6.9001 13.1441 6.9001C14.1379 6.9001 15.1379 7.1501 16.1004 7.64385C16.8316 8.01885 17.5879 8.20635 18.3504 8.20635C20.1754 8.20635 21.4879 7.11885 21.5004 7.1126L22.1504 6.56885L22.7191 7.21885L24.5504 9.3251L23.7629 10.0626C23.7566 10.0688 22.6316 11.1501 21.5191 13.4438C20.4941 15.5626 19.2691 19.1751 19.2691 24.3813V25.4376H10.3129Z" fill="#D1013E"/>
<path d="M19.2812 25.9939H10.3125C10.1562 25.9939 10.0062 25.9251 9.9 25.8126C9.79375 25.6939 9.74375 25.5376 9.75625 25.3814L9.86875 24.2064C9.89375 23.9501 10.4937 18.1939 14.0812 13.7001C13.8062 13.6126 13.5375 13.5064 13.275 13.3751C13.0687 13.2751 12.8687 13.2251 12.6812 13.2251C12.1687 13.2251 11.6937 13.5939 11.3812 13.9001C11.2562 14.0251 11.175 14.2251 11.175 14.4314V15.4876C11.175 15.7939 10.925 16.0439 10.6187 16.0439H7.18125C6.875 16.0439 6.625 15.7939 6.625 15.4876V7.01261C6.625 6.70636 6.875 6.45636 7.18125 6.45636H10.5312C10.725 6.45636 10.8937 6.55636 10.9937 6.70011C11.7 6.46261 12.4187 6.33761 13.1437 6.33761C14.2312 6.33761 15.3125 6.60636 16.3562 7.14386C17.0062 7.47511 17.675 7.64386 18.35 7.64386C19.95 7.64386 21.1375 6.68761 21.15 6.67511L21.7937 6.13136C22.025 5.93761 22.3687 5.96261 22.5687 6.18761L23.1375 6.83761L24.9687 8.95011C25.1625 9.17511 25.15 9.51886 24.925 9.72511L24.1375 10.4626C24.1312 10.4689 23.0625 11.5126 22.0187 13.6814C21.0187 15.7439 19.825 19.2814 19.825 24.3751V25.4376C19.8375 25.7439 19.5875 25.9939 19.2812 25.9939ZM10.9312 24.8814H18.725V24.3814C18.725 19.0689 19.975 15.3689 21.025 13.2001C22.1875 10.8001 23.375 9.66886 23.3875 9.65636L23.7875 9.28761L22.1 7.35011L21.8687 7.54386C21.8062 7.59386 20.375 8.76886 18.3562 8.76886C17.5062 8.76886 16.6625 8.55636 15.8562 8.14386C14.1812 7.28761 12.4125 7.23761 10.775 8.00011C10.6 8.08136 10.4 8.06886 10.2375 7.96261C10.1 7.87511 10.0125 7.73761 9.9875 7.57511H7.75V14.9376H10.0687V14.4376C10.0687 13.9314 10.2625 13.4501 10.6 13.1126C11.0562 12.6564 11.7937 12.1126 12.6875 12.1126C13.05 12.1126 13.4125 12.2001 13.7687 12.3751C14.2125 12.5939 14.6937 12.7439 15.1875 12.8189C15.3875 12.8501 15.5562 12.9876 15.625 13.1814C15.6937 13.3751 15.65 13.5876 15.5125 13.7439C11.6375 18.0439 11.0062 24.0626 10.9812 24.3189L10.9312 24.8814Z" fill="#A80132"/>
<path d="M11.7191 24.0251C11.9816 22.2814 13.3754 15.1751 18.9191 11.9751L18.6379 11.3438C18.5129 11.4126 17.4066 12.0251 15.9754 12.0251C15.2754 12.0251 14.6129 11.8751 14.0129 11.5813C13.5754 11.3688 13.1316 11.2626 12.6879 11.2626C11.6004 11.2626 10.7191 11.9126 10.1754 12.4501C9.75039 12.8751 9.48164 13.4563 9.40664 14.0876H8.43164V8.43135H9.29414V10.0376L9.80039 9.5626C9.81289 9.5501 11.1629 8.31885 13.1504 8.31885C13.9691 8.31885 14.7941 8.5251 15.6004 8.9376C16.4879 9.39385 17.4191 9.6251 18.3566 9.6251C20.1504 9.6251 21.5066 8.79385 22.0254 8.41885L22.7316 9.23135C22.3066 9.7001 21.4004 10.8063 20.4941 12.6563C19.4004 14.8876 18.0941 18.6501 18.0379 24.0376H11.7191V24.0251Z" fill="#D1013E"/>
<path d="M20.7814 21.806L20.9189 20.3997C20.9314 20.2935 21.1189 18.4872 22.0377 16.5497H19.2002V10.656H22.2127V10.6747C22.4627 10.6247 22.7189 10.5935 22.9752 10.5935C23.5877 10.5935 24.2002 10.7497 24.7939 11.0497C25.1002 11.206 25.4127 11.2872 25.7252 11.2872C26.4689 11.2872 27.0252 10.8435 27.0252 10.8435L27.7939 10.1997L28.4752 10.9747L29.9252 12.6435L28.9877 13.5185C28.9502 13.556 28.4439 14.0747 27.9439 15.106C27.4377 16.1497 26.8314 17.9435 26.8314 20.5497V21.8185H20.7814V21.806ZM22.2564 16.1122C22.4377 15.7685 22.6439 15.4247 22.8752 15.0935C22.8189 15.0747 22.7689 15.0622 22.7252 15.0622C22.5439 15.0622 22.3627 15.2122 22.2564 15.3122V16.1122Z" fill="#E6E7E8"/>
<path d="M22.025 20.5373C22.025 20.5373 22.4875 15.8061 25.95 13.8123C25.95 13.8123 24.6562 14.5748 23.3625 13.9436C22.5562 13.5498 21.8937 13.9873 21.5062 14.3686C21.275 14.5998 21.1437 14.9311 21.1437 15.2811H20.3125V11.9186H21.1V12.5623C21.1 12.5623 22.4875 11.2561 24.3375 12.2061C26.1875 13.1498 27.6875 11.8623 27.6875 11.8623L28.275 12.5373C28.275 12.5373 25.7187 14.9186 25.7187 20.5373H22.025Z" fill="#D04527"/>
<path d="M20.847 22.2856L20.9219 21.5413C20.9443 21.3383 20.1206 17.9605 22.6441 15.1484C22.2997 15.0958 23.3145 15.1579 23 15C22.8203 14.9098 22.6722 15 22.5 15C22.0507 15 22.2396 15.2594 22 15.5C21.8502 15.6504 22 15.7744 22 16L21 16.5L18.8701 15.9623V10.5714H20.9892V10.8721C21.4236 10.6691 21.9852 10.4962 22.6441 10.4962C23.2731 10.4962 23.9021 10.6541 24.5161 10.9699C24.9804 11.2105 25.4596 11.3308 25.9389 11.3308C27.092 11.3308 27.9307 10.639 27.9382 10.6315L28.35 10.2856L28.7095 10.6992L29.8701 12.0375L29.3684 12.5037C29.3609 12.5112 28.6496 13.1954 27.9457 14.6541C27.2942 15.9999 26.5229 18.3007 26.5229 21.609V22.2856H20.847Z" fill="#D1013E"/>
<path d="M26.8314 22.3623H20.7752C20.6189 22.3623 20.4689 22.2936 20.3627 22.1811C20.2564 22.0623 20.2064 21.9061 20.2189 21.7498L20.3564 20.3436C20.3752 20.1686 20.5252 18.7686 21.1814 17.1061H19.1939C18.8877 17.1061 18.6377 16.8561 18.6377 16.5498V10.6561C18.6377 10.3498 18.8877 10.0998 19.1939 10.0998H22.2064C22.2189 10.0998 22.2314 10.0998 22.2377 10.0998C23.1752 9.93732 24.1377 10.0936 25.0377 10.5561C25.2627 10.6686 25.4939 10.7311 25.7189 10.7311C26.2189 10.7311 26.6252 10.4436 26.6752 10.4061L27.4314 9.76857C27.6627 9.57482 28.0064 9.59982 28.2064 9.82482L28.8877 10.5998L30.3377 12.2686C30.5377 12.4936 30.5189 12.8373 30.2939 13.0436L29.3752 13.9061C29.3189 13.9623 28.8814 14.4373 28.4439 15.3373C27.9627 16.3311 27.3877 18.0373 27.3877 20.5373V21.8061C27.3877 22.1123 27.1377 22.3623 26.8314 22.3623ZM21.3939 21.2498H26.2752V20.5436C26.2752 17.8373 26.9127 15.9561 27.4439 14.8561C27.9752 13.7498 28.5314 13.1811 28.5939 13.1186C28.6002 13.1123 28.6064 13.1061 28.6064 13.1061L29.1502 12.5998L27.7377 10.9748L27.3877 11.2686C27.3502 11.2998 26.6627 11.8436 25.7252 11.8436C25.3189 11.8436 24.9189 11.7436 24.5377 11.5498C23.8127 11.1811 23.0564 11.0686 22.3252 11.2248C22.2439 11.2436 22.1564 11.2373 22.0752 11.2186H19.7564V15.9998H21.7002V15.3123C21.7002 15.1623 21.7627 15.0186 21.8689 14.9123C22.2627 14.5311 22.6689 14.4123 23.0814 14.5748C23.2377 14.6373 23.3627 14.7686 23.4127 14.9311C23.4627 15.0936 23.4377 15.2686 23.3377 15.4123C23.1314 15.7123 22.9314 16.0373 22.7502 16.3748C22.7127 16.4498 22.6564 16.5123 22.5939 16.5561C22.5939 16.6373 22.5752 16.7186 22.5377 16.7936C21.6564 18.6498 21.4752 20.3873 21.4689 20.4561L21.3939 21.2498Z" fill="#A80132"/>
<path d="M22.2004 20.3621C22.3379 19.4559 23.0629 15.6746 26.0129 13.9746L25.8754 13.6621C25.8129 13.6996 25.2191 14.0246 24.4629 14.0246C24.0941 14.0246 23.7441 13.9434 23.4191 13.7871C23.1879 13.6746 22.9566 13.6184 22.7191 13.6184C22.1441 13.6184 21.6816 13.9559 21.4004 14.2434C21.1754 14.4684 21.0316 14.7746 20.9941 15.1121H20.4629V12.0996H20.9379V12.9371L21.1941 12.6996C21.2004 12.6934 21.9129 12.0371 22.9691 12.0371C23.4066 12.0371 23.8379 12.1496 24.2691 12.3684C24.7379 12.6059 25.2254 12.7309 25.7254 12.7309C26.6816 12.7309 27.4004 12.2871 27.6691 12.0934L28.0504 12.5371C27.5316 13.0996 25.6129 15.4996 25.5691 20.3684H22.2004V20.3621Z" fill="#D1013E"/>
<path d="M22.0382 17.106C21.9569 17.106 21.8694 17.0872 21.7882 17.0435C21.5132 16.906 21.4007 16.5685 21.5382 16.2935L21.7569 15.8497C21.8944 15.5747 22.2319 15.4622 22.5069 15.5997C22.7819 15.7372 22.8944 16.0747 22.7569 16.3497L22.5382 16.7935C22.4382 16.9935 22.2382 17.106 22.0382 17.106Z" fill="#A80132"/>
</svg>
